  0
SECTION
  2
HEADER
  9
$ACADVER
  1
AC1015
  9
$ACADMAINTVER
 70
     6
  9
$DWGCODEPAGE
  3
ANSI_936
  9
$INSBASE
 10
0.0
 20
0.0
 30
0.0
  9
$EXTMIN
 10
0.0
 20
0.0
 30
0.0
  9
$EXTMAX
 10
594.0
 20
420.0
 30
0.0
  9
$LIMMIN
 10
0.0
 20
0.0
  9
$LIMMAX
 10
594.0
 20
420.0
  9
$ORTHOMODE
 70
     0
  9
$REGENMODE
 70
     1
  9
$FILLMODE
 70
     1
  9
$QTEXTMODE
 70
     0
  9
$MIRRTEXT
 70
     1
  9
$LTSCALE
 40
1.0
  9
$ATTMODE
 70
     1
  9
$TEXTSIZE
 40
3.5
  9
$TRACEWID
 40
1.0
  9
$TEXTSTYLE
  7
Standard
  9
$CLAYER
  8
0
  9
$CELTYPE
  6
ByLayer
  9
$CECOLOR
 62
   256
  9
$CELTSCALE
 40
1.0
  9
$DISPSILH
 70
     0
  9
$DIMSCALE
 40
1.0
  9
$DIMASZ
 40
3.556
  9
$DIMEXO
 40
1.0
  9
$DIMDLI
 40
3.75
  9
$DIMRND
 40
0.0
  9
$DIMDLE
 40
0.0
  9
$DIMEXE
 40
1.0
  9
$DIMTP
 40
0.0
  9
$DIMTM
 40
0.0
  9
$DIMTXT
 40
3.5
  9
$DIMCEN
 40
2.5
  9
$DIMTSZ
 40
0.0
  9
$DIMTOL
 70
     0
  9
$DIMLIM
 70
     0
  9
$DIMTIH
 70
     1
  9
$DIMTOH
 70
     1
  9
$DIMSE1
 70
     0
  9
$DIMSE2
 70
     0
  9
$DIMTAD
 70
     1
  9
$DIMZIN
 70
     0
  9
$DIMBLK
  1

  9
$DIMASO
 70
     1
  9
$DIMSHO
 70
     1
  9
$DIMPOST
  1

  9
$DIMAPOST
  1

  9
$DIMALT
 70
     0
  9
$DIMALTD
 70
     3
  9
$DIMALTF
 40
0.0393700787
  9
$DIMLFAC
 40
1.0
  9
$DIMTOFL
 70
     1
  9
$DIMTVP
 40
0.0
  9
$DIMTIX
 70
     0
  9
$DIMSOXD
 70
     0
  9
$DIMSAH
 70
     0
  9
$DIMBLK1
  1

  9
$DIMBLK2
  1

  9
$DIMSTYLE
  2
ISO-25
  9
$DIMCLRD
 70
     0
  9
$DIMCLRE
 70
     0
  9
$DIMCLRT
 70
     0
  9
$DIMTFAC
 40
1.0
  9
$DIMGAP
 40
1.524
  9
$DIMJUST
 70
     0
  9
$DIMSD1
 70
     0
  9
$DIMSD2
 70
     0
  9
$DIMTOLJ
 70
     0
  9
$DIMTZIN
 70
     0
  9
$DIMALTZ
 70
     0
  9
$DIMALTTZ
 70
     0
  9
$DIMUPT
 70
     0
  9
$DIMDEC
 70
     2
  9
$DIMTDEC
 70
     2
  9
$DIMALTU
 70
     2
  9
$DIMALTTD
 70
     3
  9
$DIMTXSTY
  7
Standard
  9
$DIMAUNIT
 70
     0
  9
$DIMADEC
 70
     2
  9
$DIMALTRND
 40
0.0
  9
$DIMAZIN
 70
     0
  9
$DIMDSEP
 70
    44
  9
$DIMATFIT
 70
     3
  9
$DIMFRAC
 70
     0
  9
$DIMLDRBLK
  1

  9
$DIMLUNIT
 70
     2
  9
$DIMLWD
 70
    -2
  9
$DIMLWE
 70
    -2
  9
$DIMTMOVE
 70
     0
  9
$LUNITS
 70
     2
  9
$LUPREC
 70
     2
  9
$SKETCHINC
 40
1.0
  9
$FILLETRAD
 40
10.0
  9
$AUNITS
 70
     0
  9
$AUPREC
 70
     2
  9
$MENU
  1
.
  9
$ELEVATION
 40
0.0
  9
$PELEVATION
 40
0.0
  9
$THICKNESS
 40
0.0
  9
$LIMCHECK
 70
     0
  9
$CHAMFERA
 40
0.0
  9
$CHAMFERB
 40
0.0
  9
$CHAMFERC
 40
0.0
  9
$CHAMFERD
 40
0.0
  9
$SKPOLY
 70
     0
  9
$TDCREATE
 40
2457869.9167175
  9
$TDUCREATE
 40
2457869.583384166
  9
$TDUPDATE
 40
2457869.916721586
  9
$TDUUPDATE
 40
2457869.583388252
  9
$TDINDWG
 40
0.0000000116
  9
$TDUSRTIMER
 40
0.0000000116
  9
$USRTIMER
 70
     1
  9
$ANGBASE
 50
0.0
  9
$ANGDIR
 70
     0
  9
$PDMODE
 70
     0
  9
$PDSIZE
 40
-1.0
  9
$PLINEWID
 40
0.0
  9
$SPLFRAME
 70
     0
  9
$SPLINETYPE
 70
     6
  9
$SPLINESEGS
 70
     8
  9
$HANDSEED
  5
2A1
  9
$SURFTAB1
 70
     6
  9
$SURFTAB2
 70
     6
  9
$SURFTYPE
 70
     6
  9
$SURFU
 70
     6
  9
$SURFV
 70
     6
  9
$UCSBASE
  2

  9
$UCSNAME
  2

  9
$UCSORG
 10
0.0
 20
0.0
 30
0.0
  9
$UCSXDIR
 10
1.0
 20
0.0
 30
0.0
  9
$UCSYDIR
 10
0.0
 20
1.0
 30
0.0
  9
$UCSORTHOREF
  2

  9
$UCSORTHOVIEW
 70
     0
  9
$UCSORGTOP
 10
0.0
 20
0.0
 30
0.0
  9
$UCSORGBOTTOM
 10
0.0
 20
0.0
 30
0.0
  9
$UCSORGLEFT
 10
0.0
 20
0.0
 30
0.0
  9
$UCSORGRIGHT
 10
0.0
 20
0.0
 30
0.0
  9
$UCSORGFRONT
 10
0.0
 20
0.0
 30
0.0
  9
$UCSORGBACK
 10
0.0
 20
0.0
 30
0.0
  9
$PUCSBASE
  2

  9
$PUCSNAME
  2

  9
$PUCSORG
 10
0.0
 20
0.0
 30
0.0
  9
$PUCSXDIR
 10
1.0
 20
0.0
 30
0.0
  9
$PUCSYDIR
 10
0.0
 20
1.0
 30
0.0
  9
$PUCSORTHOREF
  2

  9
$PUCSORTHOVIEW
 70
     0
  9
$PUCSORGTOP
 10
0.0
 20
0.0
 30
0.0
  9
$PUCSORGBOTTOM
 10
0.0
 20
0.0
 30
0.0
  9
$PUCSORGLEFT
 10
0.0
 20
0.0
 30
0.0
  9
$PUCSORGRIGHT
 10
0.0
 20
0.0
 30
0.0
  9
$PUCSORGFRONT
 10
0.0
 20
0.0
 30
0.0
  9
$PUCSORGBACK
 10
0.0
 20
0.0
 30
0.0
  9
$USERI1
 70
     0
  9
$USERI2
 70
     0
  9
$USERI3
 70
     0
  9
$USERI4
 70
     0
  9
$USERI5
 70
     0
  9
$USERR1
 40
0.0
  9
$USERR2
 40
0.0
  9
$USERR3
 40
0.0
  9
$USERR4
 40
0.0
  9
$USERR5
 40
0.0
  9
$WORLDVIEW
 70
     1
  9
$SHADEDGE
 70
     3
  9
$SHADEDIF
 70
    70
  9
$TILEMODE
 70
     1
  9
$MAXACTVP
 70
    64
  9
$PINSBASE
 10
0.0
 20
0.0
 30
0.0
  9
$PLIMCHECK
 70
     0
  9
$PEXTMIN
 10
1.0000000000E+20
 20
1.0000000000E+20
 30
1.0000000000E+20
  9
$PEXTMAX
 10
-1.0000000000E+20
 20
-1.0000000000E+20
 30
-1.0000000000E+20
  9
$PLIMMIN
 10
0.0
 20
0.0
  9
$PLIMMAX
 10
420.0
 20
297.0
  9
$UNITMODE
 70
     0
  9
$VISRETAIN
 70
     1
  9
$PLINEGEN
 70
     0
  9
$PSLTSCALE
 70
     1
  9
$TREEDEPTH
 70
  3020
  9
$CMLSTYLE
  2
Standard
  9
$CMLJUST
 70
     0
  9
$CMLSCALE
 40
20.0
  9
$PROXYGRAPHICS
 70
     1
  9
$MEASUREMENT
 70
     1
  9
$CELWEIGHT
370
    -1
  9
$ENDCAPS
280
     0
  9
$JOINSTYLE
280
     0
  9
$LWDISPLAY
290
     1
  9
$INSUNITS
 70
     4
  9
$HYPERLINKBASE
  1

  9
$STYLESHEET
  1

  9
$XEDIT
290
     1
  9
$CEPSNTYPE
380
     0
  9
$PSTYLEMODE
290
     1
  9
$FINGERPRINTGUID
  2
{8042BEB1-A6A0-4B9A-8F69-99DF5DCB6218}
  9
$VERSIONGUID
  2
{FAEB1C32-E019-11D5-929B-00C0DF256EC4}
  9
$EXTNAMES
290
     1
  9
$PSVPSCALE
 40
0.0
  9
$OLESTARTUP
290
     0
  0
ENDSEC
  0
SECTION
  2
CLASSES
  0
CLASS
  1
ACDBDICTIONARYWDFLT
  2
AcDbDictionaryWithDefault
  3
ObjectDBX Classes
 90
        0
280
     0
281
     0
  0
CLASS
  1
VISUALSTYLE
  2
AcDbVisualStyle
  3
ObjectDBX Classes
 90
     4095
280
     0
281
     0
  0
CLASS
  1
MATERIAL
  2
AcDbMaterial
  3
ObjectDBX Classes
 90
     1153
280
     0
281
     0
  0
CLASS
  1
SCALE
  2
AcDbScale
  3
ObjectDBX Classes
 90
     1153
280
     0
281
     0
  0
CLASS
  1
TABLESTYLE
  2
AcDbTableStyle
  3
ObjectDBX Classes
 90
     4095
280
     0
281
     0
  0
CLASS
  1
MLEADERSTYLE
  2
AcDbMLeaderStyle
  3
ACDB_MLEADERSTYLE_CLASS
 90
     4095
280
     0
281
     0
  0
CLASS
  1
SUN
  2
AcDbSun
  3
SCENEOE
 90
     1153
280
     0
281
     0
  0
CLASS
  1
ACDBPLACEHOLDER
  2
AcDbPlaceHolder
  3
ObjectDBX Classes
 90
        0
280
     0
281
     0
  0
CLASS
  1
LAYOUT
  2
AcDbLayout
  3
ObjectDBX Classes
 90
        0
280
     0
281
     0
  0
ENDSEC
  0
SECTION
  2
TABLES
  0
TABLE
  2
VPORT
  5
8
330
0
100
AcDbSymbolTable
 70
     1
  0
VPORT
  5
29
330
8
100
AcDbSymbolTableRecord
100
AcDbViewportTableRecord
  2
*Active
 70
     0
 10
0.0
 20
0.0
 11
1.0
 21
1.0
 12
297.0
 22
210.0
 13
0.0
 23
0.0
 14
10.0
 24
10.0
 15
10.0
 25
10.0
 16
0.0
 26
0.0
 36
1.0
 17
0.0
 27
0.0
 37
0.0
 40
420.0
 41
1.4142857143
 42
50.0
 43
0.0
 44
0.0
 50
0.0
 51
0.0
 71
     0
 72
  2000
 73
     1
 74
     3
 75
     0
 76
     0
 77
     0
 78
     0
281
     0
 65
     1
110
0.0
120
0.0
130
0.0
111
1.0
121
0.0
131
0.0
112
0.0
122
1.0
132
0.0
 79
     0
146
0.0
  0
ENDTAB
  0
TABLE
  2
LTYPE
  5
5
330
0
100
AcDbSymbolTable
 70
     6
  0
LTYPE
  5
14
330
5
100
AcDbSymbolTableRecord
100
AcDbLinetypeTableRecord
  2
ByBlock
 70
     0
  3

 72
    65
 73
     0
 40
0.0
  0
LTYPE
  5
15
330
5
100
AcDbSymbolTableRecord
100
AcDbLinetypeTableRecord
  2
ByLayer
 70
     0
  3

 72
    65
 73
     0
 40
0.0
  0
LTYPE
  5
16
330
5
100
AcDbSymbolTableRecord
100
AcDbLinetypeTableRecord
  2
Continuous
 70
     0
  3
Solid line
 72
    65
 73
     0
 40
0.0
  0
LTYPE
  5
6E
330
5
100
AcDbSymbolTableRecord
100
AcDbLinetypeTableRecord
  2
HIDDEN
 70
     0
  3
Hidden __ __ __ __ __ __ __ __ __ __ __ __ __ __
 72
    65
 73
     2
 40
1.905
 49
1.27
 74
     0
 49
-0.635
 74
     0
  0
LTYPE
  5
6F
330
5
100
AcDbSymbolTableRecord
100
AcDbLinetypeTableRecord
  2
PHANTOM
 70
     0
  3
Phantom ______  __  __  ______  __  __  ______
 72
    65
 73
     6
 40
12.7
 49
6.35
 74
     0
 49
-1.27
 74
     0
 49
1.27
 74
     0
 49
-1.27
 74
     0
 49
1.27
 74
     0
 49
-1.27
 74
     0
  0
LTYPE
  5
70
330
5
100
AcDbSymbolTableRecord
100
AcDbLinetypeTableRecord
  2
CENTER
 70
     0
  3
Center ____ _ ____ _ ____ _ ____ _ ____ _ ____
 72
    65
 73
     4
 40
10.16
 49
6.35
 74
     0
 49
-1.27
 74
     0
 49
1.27
 74
     0
 49
-1.27
 74
     0
  0
LTYPE
  5
71
330
5
100
AcDbSymbolTableRecord
100
AcDbLinetypeTableRecord
  2
CENTERX2
 70
     0
  3
Center (2x) ________  __  ________  __  _____
 72
    65
 73
     4
 40
20.32
 49
12.7
 74
     0
 49
-2.54
 74
     0
 49
2.54
 74
     0
 49
-2.54
 74
     0
  0
LTYPE
  5
72
330
5
100
AcDbSymbolTableRecord
100
AcDbLinetypeTableRecord
  2
DOT2
 70
     0
  3
Dot (.5x) ........................................
 72
    65
 73
     2
 40
0.635
 49
0.0
 74
     0
 49
-0.635
 74
     0
  0
ENDTAB
  0
TABLE
  2
LAYER
  5
2
330
0
100
AcDbSymbolTable
 70
     2
  0
LAYER
  5
10
330
2
100
AcDbSymbolTableRecord
100
AcDbLayerTableRecord
  2
0
 70
     0
 62
     7
  6
Continuous
370
    -3
390
F
  0
LAYER
  5
73
330
2
100
AcDbSymbolTableRecord
100
AcDbLayerTableRecord
  2
FORMAT
 70
     0
 62
     7
  6
Continuous
370
    -3
390
F
  0
ENDTAB
  0
TABLE
  2
STYLE
  5
3
330
0
100
AcDbSymbolTable
 70
     4
  0
STYLE
  5
11
330
3
100
AcDbSymbolTableRecord
100
AcDbTextStyleTableRecord
  2
Standard
 70
     0
 40
0.0
 41
1.0
 50
0.0
 71
     0
 42
3.5
  3
txt
  4

  0
STYLE
  5
BD
330
3
100
AcDbSymbolTableRecord
100
AcDbTextStyleTableRecord
  2
SLDTEXTSTYLE0
 70
     0
 40
0.0
 41
0.75
 50
0.0
 71
     0
 42
3.5
  3
TXT
  4
bigfont
  0
STYLE
  5
DD
330
3
100
AcDbSymbolTableRecord
100
AcDbTextStyleTableRecord
  2
SLDTEXTSTYLE1
 70
     0
 40
0.0
 41
0.6944444444
 50
0.0
 71
     0
 42
3.5
  3
TXT
  4
bigfont
  0
STYLE
  5
DF
330
3
100
AcDbSymbolTableRecord
100
AcDbTextStyleTableRecord
  2
SLDTEXTSTYLE2
 70
     0
 40
0.0
 41
0.75
 50
0.0
 71
     0
 42
3.5
  3
TXT
  4

  0
ENDTAB
  0
TABLE
  2
VIEW
  5
6
330
0
100
AcDbSymbolTable
 70
     0
  0
ENDTAB
  0
TABLE
  2
UCS
  5
7
330
0
100
AcDbSymbolTable
 70
     0
  0
ENDTAB
  0
TABLE
  2
APPID
  5
9
330
0
100
AcDbSymbolTable
 70
     1
  0
APPID
  5
12
330
9
100
AcDbSymbolTableRecord
100
AcDbRegAppTableRecord
  2
ACAD
 70
     0
  0
ENDTAB
  0
TABLE
  2
DIMSTYLE
  5
A
330
0
100
AcDbSymbolTable
 70
     8
100
AcDbDimStyleTable
  0
DIMSTYLE
105
27
330
A
100
AcDbSymbolTableRecord
100
AcDbDimStyleTableRecord
  2
ISO-25
 70
     0
 41
2.5
 42
0.625
 43
3.75
 44
1.25
 73
     0
 74
     0
 77
     1
 78
     8
140
2.5
141
2.5
143
0.0393700787
147
0.625
171
     3
172
     1
178
     0
271
     2
272
     2
274
     3
278
    44
283
     0
284
     8
340
11
  0
DIMSTYLE
105
123
102
{ACAD_REACTORS
330
122
330
176
102
}
330
A
100
AcDbSymbolTableRecord
100
AcDbDimStyleTableRecord
  2
SLDDIMSTYLE0
 70
     0
 41
3.556
 44
0.0
 45
0.000000001
 73
     0
 74
     0
 77
     1
 78
    12
 79
     3
140
3.5
141
0.0
147
0.875
173
     1
178
     0
271
     2
272
     2
276
     2
284
    12
340
DF
341
124
343
124
344
124
  0
DIMSTYLE
105
133
102
{ACAD_REACTORS
330
132
102
}
330
A
100
AcDbSymbolTableRecord
100
AcDbDimStyleTableRecord
  2
SLDDIMSTYLE1
 70
     0
 41
3.556
 44
0.0
 45
0.000000001
 73
     0
 74
     0
 77
     1
 78
    12
 79
     3
140
3.5
141
0.0
147
0.875
172
     1
173
     1
178
     0
271
     2
272
     2
276
     2
284
    12
340
DF
341
134
343
134
344
124
  0
DIMSTYLE
105
140
102
{ACAD_REACTORS
330
13F
330
17E
330
199
330
1A5
330
1D0
330
206
330
21C
330
229
330
235
330
241
330
24E
330
27B
330
295
102
}
330
A
100
AcDbSymbolTableRecord
100
AcDbDimStyleTableRecord
  2
SLDDIMSTYLE2
 70
     0
 41
3.556
 44
0.0
 45
0.000000001
 73
     0
 74
     0
 77
     1
 78
    12
 79
     3
140
3.5
147
0.875
172
     1
173
     1
178
     0
271
     2
272
     2
276
     2
284
    12
289
     0
340
DF
341
124
343
124
344
124
  0
DIMSTYLE
105
14E
102
{ACAD_REACTORS
330
14D
102
}
330
A
100
AcDbSymbolTableRecord
100
AcDbDimStyleTableRecord
  2
SLDDIMSTYLE3
 70
     0
 41
3.556
 44
0.0
 45
0.000000001
 73
     0
 74
     0
 77
     1
 78
     4
 79
     1
140
3.5
141
0.0
147
0.875
173
     1
178
     0
271
     2
272
     2
276
     2
284
    12
340
DF
341
124
343
124
344
124
  0
DIMSTYLE
105
157
102
{ACAD_REACTORS
330
156
330
161
330
16B
330
1DC
330
1E7
330
212
102
}
330
A
100
AcDbSymbolTableRecord
100
AcDbDimStyleTableRecord
  2
SLDDIMSTYLE4
 70
     0
 41
3.556
 44
0.0
 45
0.000000001
 73
     0
 74
     0
 77
     1
 78
    12
 79
     3
140
3.5
147
0.875
173
     1
178
     0
271
     2
272
     2
276
     2
284
    12
340
DF
341
124
343
124
344
124
  0
DIMSTYLE
105
18C
102
{ACAD_REACTORS
330
18B
330
263
330
26F
330
288
102
}
330
A
100
AcDbSymbolTableRecord
100
AcDbDimStyleTableRecord
  2
SLDDIMSTYLE5
 70
     0
 41
3.556
 44
0.0
 45
0.000000001
 73
     0
 74
     0
 77
     1
 78
     4
 79
     1
140
3.5
147
0.875
172
     1
173
     1
178
     0
271
     2
272
     2
276
     2
284
    12
289
     0
340
DF
341
124
343
124
344
124
  0
DIMSTYLE
105
259
102
{ACAD_REACTORS
330
258
102
}
330
A
100
AcDbSymbolTableRecord
100
AcDbDimStyleTableRecord
  2
SLDDIMSTYLE6
 70
     0
 41
3.556
 44
0.0
 45
0.000000001
 73
     0
 74
     0
 77
     1
 78
     4
 79
     1
140
3.5
147
0.875
173
     1
178
     0
271
     2
272
     2
276
     2
284
    12
340
DF
341
124
343
124
344
124
  0
ENDTAB
  0
TABLE
  2
BLOCK_RECORD
  5
1
330
0
100
AcDbSymbolTable
 70
    34
  0
BLOCK_RECORD
  5
1F
330
1
100
AcDbSymbolTableRecord
100
AcDbBlockTableRecord
  2
*Model_Space
340
22
  0
BLOCK_RECORD
  5
1B
330
1
100
AcDbSymbolTableRecord
100
AcDbBlockTableRecord
  2
*Paper_Space
340
1E
  0
BLOCK_RECORD
  5
23
330
1
100
AcDbSymbolTableRecord
100
AcDbBlockTableRecord
  2
*Paper_Space0
340
26
  0
BLOCK_RECORD
  5
C3
330
1
100
AcDbSymbolTableRecord
100
AcDbBlockTableRecord
  2
SW_NOTE_0
340
0
102
{BLKREFS
331
CC
102
}
  0
BLOCK_RECORD
  5
CE
330
1
100
AcDbSymbolTableRecord
100
AcDbBlockTableRecord
  2
SW_NOTE_1
340
0
102
{BLKREFS
331
D3
102
}
  0
BLOCK_RECORD
  5
124
330
1
100
AcDbSymbolTableRecord
100
AcDbBlockTableRecord
  2
_Closed
340
0
102
{BLKREFS
331
12E
331
13A
331
144
331
145
331
152
331
15B
331
15C
331
165
331
166
331
16F
331
170
331
17A
331
182
331
183
331
190
331
191
331
19D
331
19E
331
1A9
331
1AA
331
1D4
331
1D5
331
1E0
331
1E1
331
1EB
331
1EC
331
20A
331
20B
331
216
331
217
331
220
331
221
331
22D
331
22E
331
239
331
23A
331
245
331
246
331
252
331
253
331
25D
331
25E
331
267
331
268
331
273
331
274
331
27F
331
280
331
28C
331
28D
331
299
331
29A
102
}
  0
BLOCK_RECORD
  5
12B
330
1
100
AcDbSymbolTableRecord
100
AcDbBlockTableRecord
  2
_D
340
0
  0
BLOCK_RECORD
  5
134
330
1
100
AcDbSymbolTableRecord
100
AcDbBlockTableRecord
  2
_None
340
0
  0
BLOCK_RECORD
  5
137
330
1
100
AcDbSymbolTableRecord
100
AcDbBlockTableRecord
  2
_D_1
340
0
  0
BLOCK_RECORD
  5
141
330
1
100
AcDbSymbolTableRecord
100
AcDbBlockTableRecord
  2
_D_2
340
0
  0
BLOCK_RECORD
  5
14F
330
1
100
AcDbSymbolTableRecord
100
AcDbBlockTableRecord
  2
_D_3
340
0
  0
BLOCK_RECORD
  5
158
330
1
100
AcDbSymbolTableRecord
100
AcDbBlockTableRecord
  2
_D_4
340
0
  0
BLOCK_RECORD
  5
162
330
1
100
AcDbSymbolTableRecord
100
AcDbBlockTableRecord
  2
_D_5
340
0
  0
BLOCK_RECORD
  5
16C
330
1
100
AcDbSymbolTableRecord
100
AcDbBlockTableRecord
  2
_D_6
340
0
  0
BLOCK_RECORD
  5
177
330
1
100
AcDbSymbolTableRecord
100
AcDbBlockTableRecord
  2
_D_7
340
0
  0
BLOCK_RECORD
  5
17F
330
1
100
AcDbSymbolTableRecord
100
AcDbBlockTableRecord
  2
_D_8
340
0
  0
BLOCK_RECORD
  5
18D
330
1
100
AcDbSymbolTableRecord
100
AcDbBlockTableRecord
  2
_D_9
340
0
  0
BLOCK_RECORD
  5
19A
330
1
100
AcDbSymbolTableRecord
100
AcDbBlockTableRecord
  2
_D_10
340
0
  0
BLOCK_RECORD
  5
1A6
330
1
100
AcDbSymbolTableRecord
100
AcDbBlockTableRecord
  2
_D_11
340
0
  0
BLOCK_RECORD
  5
1AF
330
1
100
AcDbSymbolTableRecord
100
AcDbBlockTableRecord
  2
SW_CENTERMARKSYMBOL_0
340
0
102
{BLKREFS
331
1BA
102
}
  0
BLOCK_RECORD
  5
1D1
330
1
100
AcDbSymbolTableRecord
100
AcDbBlockTableRecord
  2
_D_12
340
0
  0
BLOCK_RECORD
  5
1DD
330
1
100
AcDbSymbolTableRecord
100
AcDbBlockTableRecord
  2
_D_13
340
0
  0
BLOCK_RECORD
  5
1E8
330
1
100
AcDbSymbolTableRecord
100
AcDbBlockTableRecord
  2
_D_14
340
0
  0
BLOCK_RECORD
  5
207
330
1
100
AcDbSymbolTableRecord
100
AcDbBlockTableRecord
  2
_D_15
340
0
  0
BLOCK_RECORD
  5
213
330
1
100
AcDbSymbolTableRecord
100
AcDbBlockTableRecord
  2
_D_16
340
0
  0
BLOCK_RECORD
  5
21D
330
1
100
AcDbSymbolTableRecord
100
AcDbBlockTableRecord
  2
_D_17
340
0
  0
BLOCK_RECORD
  5
22A
330
1
100
AcDbSymbolTableRecord
100
AcDbBlockTableRecord
  2
_D_18
340
0
  0
BLOCK_RECORD
  5
236
330
1
100
AcDbSymbolTableRecord
100
AcDbBlockTableRecord
  2
_D_19
340
0
  0
BLOCK_RECORD
  5
242
330
1
100
AcDbSymbolTableRecord
100
AcDbBlockTableRecord
  2
_D_20
340
0
  0
BLOCK_RECORD
  5
24F
330
1
100
AcDbSymbolTableRecord
100
AcDbBlockTableRecord
  2
_D_21
340
0
  0
BLOCK_RECORD
  5
25A
330
1
100
AcDbSymbolTableRecord
100
AcDbBlockTableRecord
  2
_D_22
340
0
  0
BLOCK_RECORD
  5
264
330
1
100
AcDbSymbolTableRecord
100
AcDbBlockTableRecord
  2
_D_23
340
0
  0
BLOCK_RECORD
  5
270
330
1
100
AcDbSymbolTableRecord
100
AcDbBlockTableRecord
  2
_D_24
340
0
  0
BLOCK_RECORD
  5
27C
330
1
100
AcDbSymbolTableRecord
100
AcDbBlockTableRecord
  2
_D_25
340
0
  0
BLOCK_RECORD
  5
289
330
1
100
AcDbSymbolTableRecord
100
AcDbBlockTableRecord
  2
_D_26
340
0
  0
BLOCK_RECORD
  5
296
330
1
100
AcDbSymbolTableRecord
100
AcDbBlockTableRecord
  2
_D_27
340
0
  0
ENDTAB
  0
ENDSEC
  0
SECTION
  2
BLOCKS
  0
BLOCK
  5
20
330
1F
100
AcDbEntity
  8
0
100
AcDbBlockBegin
  2
*Model_Space
 70
     0
 10
0.0
 20
0.0
 30
0.0
  3
*Model_Space
  1

  0
ENDBLK
  5
21
330
1F
100
AcDbEntity
  8
0
100
AcDbBlockEnd
  0
BLOCK
  5
1C
330
1B
100
AcDbEntity
 67
     1
  8
0
100
AcDbBlockBegin
  2
*Paper_Space
 70
     0
 10
0.0
 20
0.0
 30
0.0
  3
*Paper_Space
  1

  0
ENDBLK
  5
1D
330
1B
100
AcDbEntity
 67
     1
  8
0
100
AcDbBlockEnd
  0
BLOCK
  5
24
330
23
100
AcDbEntity
  8
0
100
AcDbBlockBegin
  2
*Paper_Space0
 70
     0
 10
0.0
 20
0.0
 30
0.0
  3
*Paper_Space0
  1

  0
ENDBLK
  5
25
330
23
100
AcDbEntity
  8
0
100
AcDbBlockEnd
  0
BLOCK
  5
C4
330
C3
100
AcDbEntity
  8
0
100
AcDbBlockBegin
  2
SW_NOTE_0
 70
     0
 10
0.0
 20
0.0
 30
0.0
  3
SW_NOTE_0
  1

  0
MTEXT
  5
C6
330
C3
100
AcDbEntity
  8
0
  6
Continuous
 62
     0
370
     0
100
AcDbMText
 10
0.0
 20
1.9336016097
 30
0.0
 40
1.5
 41
0.0
 71
     1
 72
     1
  1
\M+18F9C\M+194F1Áí\M+18A4F\M+18E77\M+192E8:
  7
SLDTEXTSTYLE0
 73
     1
 44
1.0
  0
MTEXT
  5
C7
330
C3
100
AcDbEntity
  8
0
  6
Continuous
 62
     0
370
     0
100
AcDbMText
 10
0.0
 20
-0.5663983345
 30
0.0
 40
1.5
 41
0.0
 71
     1
 72
     1
  1
\M+18EDA\M+190A1\M+18E67\M+19770\M+19F7C\M+195C4
  7
SLDTEXTSTYLE0
 73
     1
 44
1.0
  0
MTEXT
  5
C8
330
C3
100
AcDbEntity
  8
0
  6
Continuous
 62
     0
370
     0
100
AcDbMText
 10
0.0
 20
-3.0663982786
 30
0.0
 40
1.5
 41
0.0
 71
     1
 72
     1
  1
\M+1955C\M+196CA\M+19165²Ú\M+19378:
  7
SLDTEXTSTYLE0
 73
     1
 44
1.0
  0
MTEXT
  5
C9
330
C3
100
AcDbEntity
  8
0
  6
Continuous
 62
     0
370
     0
100
AcDbMText
 10
0.0
 20
-5.5663982227
 30
0.0
 40
1.5
 41
0.0
 71
     1
 72
     1
  1
\M+18CF6\M+18DB7:
  7
SLDTEXTSTYLE0
 73
     1
 44
1.0
  0
MTEXT
  5
CA
330
C3
100
AcDbEntity
  8
0
  6
Continuous
 62
     0
370
     0
100
AcDbMText
 10
1.6875
 20
-8.0663981668
 30
0.0
 40
1.5
 41
0.0
 71
     1
 72
     1
  1
Ïß\M+190AB:
  7
SLDTEXTSTYLE0
 73
     1
 44
1.0
  0
MTEXT
  5
CB
330
C3
100
AcDbEntity
  8
0
  6
Continuous
 62
     0
370
     0
100
AcDbMText
 10
1.6875
 20
-10.5663981109
 30
0.0
 40
1.5
 41
0.0
 71
     1
 72
     1
  1
\M+18A70\M+19378:
  7
SLDTEXTSTYLE0
 73
     1
 44
1.0
  0
ENDBLK
  5
C5
330
C3
100
AcDbEntity
  8
0
100
AcDbBlockEnd
  0
BLOCK
  5
CF
330
CE
100
AcDbEntity
  8
0
100
AcDbBlockBegin
  2
SW_NOTE_1
 70
     0
 10
0.0
 20
0.0
 30
0.0
  3
SW_NOTE_1
  1

  0
MTEXT
  5
D1
330
CE
100
AcDbEntity
  8
0
  6
Continuous
 62
     0
370
     0
100
AcDbMText
 10
0.0
 20
1.9336016097
 30
0.0
 40
1.5
 41
0.0
 71
     1
 72
     1
  1
\M+18FABÈñ±ß\M+190B4\M+18F9C
  7
SLDTEXTSTYLE0
 73
     1
 44
1.0
  0
MTEXT
  5
D2
330
CE
100
AcDbEntity
  8
0
  6
Continuous
 62
     0
370
     0
100
AcDbMText
 10
0.0
 20
-0.5663983345
 30
0.0
 40
1.5
 41
0.0
 71
     1
 72
     1
  1
\M+196D1\M+18E68\M+19BF3\M+190DC\M+19266
  7
SLDTEXTSTYLE0
 73
     1
 44
1.0
  0
ENDBLK
  5
D0
330
CE
100
AcDbEntity
  8
0
100
AcDbBlockEnd
  0
BLOCK
  5
125
330
124
100
AcDbEntity
  8
0
100
AcDbBlockBegin
  2
_Closed
 70
     0
 10
0.0
 20
0.0
 30
0.0
  3
_Closed
  1

  0
LINE
  5
127
330
124
100
AcDbEntity
  8
0
  6
ByBlock
 62
     0
370
    -2
100
AcDbLine
 10
-1.0
 20
0.166667
 30
0.0
 11
0.0
 21
0.0
 31
0.0
  0
LINE
  5
128
330
124
100
AcDbEntity
  8
0
  6
ByBlock
 62
     0
370
    -2
100
AcDbLine
 10
0.0
 20
0.0
 30
0.0
 11
-1.0
 21
-0.166667
 31
0.0
  0
LINE
  5
129
330
124
100
AcDbEntity
  8
0
  6
ByBlock
 62
     0
370
    -2
100
AcDbLine
 10
-1.0
 20
0.166667
 30
0.0
 11
-1.0
 21
-0.166667
 31
0.0
  0
LINE
  5
12A
330
124
100
AcDbEntity
  8
0
  6
ByBlock
 62
     0
370
    -2
100
AcDbLine
 10
0.0
 20
0.0
 30
0.0
 11
-1.0
 21
0.0
 31
0.0
  0
ENDBLK
  5
126
330
124
100
AcDbEntity
  8
0
100
AcDbBlockEnd
  0
BLOCK
  5
12C
330
12B
100
AcDbEntity
  8
0
100
AcDbBlockBegin
  2
_D
 70
     0
 10
0.0
 20
0.0
 30
0.0
  3
_D
  1

  0
INSERT
  5
12E
330
12B
100
AcDbEntity
  8
0
  6
Continuous
 62
     7
370
    18
100
AcDbBlockReference
  2
_Closed
 10
172.4274906531
 20
191.7227520054
 30
-3.5
 41
3.556
 42
3.556
 50
240.0
  0
LINE
  5
12F
330
12B
100
AcDbEntity
  8
0
  6
Continuous
 62
     7
370
    18
100
AcDbLine
 10
172.4274906531
 20
191.7227520054
 30
0.0
 11
193.668246719
 21
228.5128207028
 31
0.0
  0
LINE
  5
130
330
12B
100
AcDbEntity
  8
0
  6
Continuous
 62
     7
370
    18
100
AcDbLine
 10
172.4274906531
 20
191.7227520054
 30
0.0
 11
162.9274906531
 21
175.2682693335
 31
0.0
  0
MTEXT
  5
131
330
12B
100
AcDbEntity
  8
0
  6
Continuous
 62
     7
370
    18
100
AcDbMText
 10
185.7606415291
 20
223.8334569415
 30
0.0
 40
3.5
 41
0.0
 71
     1
 72
     1
  1
R19
  7
SLDTEXTSTYLE2
 11
0.4999999999999972
 21
0.8660254037844403
 31
0.0
 73
     1
 44
1.0
  0
ENDBLK
  5
12D
330
12B
100
AcDbEntity
  8
0
100
AcDbBlockEnd
  0
BLOCK
  5
135
330
134
100
AcDbEntity
  8
0
100
AcDbBlockBegin
  2
_None
 70
     0
 10
0.0
 20
0.0
 30
0.0
  3
_None
  1

  0
ENDBLK
  5
136
330
134
100
AcDbEntity
  8
0
100
AcDbBlockEnd
  0
BLOCK
  5
138
330
137
100
AcDbEntity
  8
0
100
AcDbBlockBegin
  2
_D_1
 70
     0
 10
0.0
 20
0.0
 30
0.0
  3
_D_1
  1

  0
INSERT
  5
13A
330
137
100
AcDbEntity
  8
0
  6
Continuous
 62
     7
370
    18
100
AcDbBlockReference
  2
_Closed
 10
170.6841111798
 20
181.5797539453
 30
-3.5
 41
3.556
 42
3.556
 50
219.1349048356
  0
LINE
  5
13B
330
137
100
AcDbEntity
  8
0
  6
Continuous
 62
     7
370
    18
100
AcDbLine
 10
170.6841111798
 20
181.5797539453
 30
0.0
 11
195.671342795
 21
201.9116146171
 31
0.0
  0
LINE
  5
13C
330
137
100
AcDbEntity
  8
0
  6
Continuous
 62
     7
370
    18
100
AcDbLine
 10
170.6841111798
 20
181.5797539453
 30
0.0
 11
155.1708701265
 21
168.9567847216
 31
0.0
  0
MTEXT
  5
13D
330
137
100
AcDbEntity
  8
0
  6
Continuous
 62
     7
370
    18
100
AcDbMText
 10
184.7226255093
 20
198.8090866896
 30
0.0
 40
3.5
 41
0.0
 71
     1
 72
     1
  1
%%c
  7
SLDTEXTSTYLE2
 11
0.7756620526655599
 21
0.6311484611837774
 31
0.0
 73
     1
 44
1.0
  0
MTEXT
  5
13E
330
137
100
AcDbEntity
  8
0
  6
Continuous
 62
     7
370
    18
100
AcDbMText
 10
188.7831602146
 20
202.1820406693
 30
0.0
 40
3.5
 41
0.0
 71
     1
 72
     1
  1
20
  7
SLDTEXTSTYLE2
 11
0.7756620526655599
 21
0.6311484611837774
 31
0.0
 73
     1
 44
1.0
  0
ENDBLK
  5
139
330
137
100
AcDbEntity
  8
0
100
AcDbBlockEnd
  0
BLOCK
  5
142
330
141
100
AcDbEntity
  8
0
100
AcDbBlockBegin
  2
_D_2
 70
     0
 10
0.0
 20
0.0
 30
0.0
  3
_D_2
  1

  0
INSERT
  5
144
330
141
100
AcDbEntity
  8
0
  6
Continuous
 62
     7
370
    18
100
AcDbBlockReference
  2
_Closed
 10
150.9024906531
 20
206.8615289327
 30
-3.5
 41
3.556
 42
3.556
 50
0.0
  0
INSERT
  5
145
330
141
100
AcDbEntity
  8
0
  6
Continuous
 62
     7
370
    18
100
AcDbBlockReference
  2
_Closed
 10
174.9524906531
 20
206.8615289327
 30
-3.5
 41
3.556
 42
3.556
 50
180.0
  0
LINE
  5
146
330
141
100
AcDbEntity
  8
0
  6
Continuous
 62
     7
370
    18
100
AcDbLine
 10
150.9024906531
 20
176.2682693335
 30
0.0
 11
150.9024906531
 21
207.8615289327
 31
0.0
  0
LINE
  5
147
330
141
100
AcDbEntity
  8
0
  6
Continuous
 62
     7
370
    18
100
AcDbLine
 10
174.9524906531
 20
176.2682693335
 30
0.0
 11
174.9524906531
 21
207.8615289327
 31
0.0
  0
LINE
  5
148
330
141
100
AcDbEntity
  8
0
  6
Continuous
 62
     7
370
    18
100
AcDbLine
 10
150.9024906531
 20
206.8615289327
 30
0.0
 11
144.5524906531
 21
206.8615289327
 31
0.0
  0
LINE
  5
149
330
141
100
AcDbEntity
  8
0
  6
Continuous
 62
     7
370
    18
100
AcDbLine
 10
150.9024906531
 20
206.8615289327
 30
0.0
 11
174.9524906531
 21
206.8615289327
 31
0.0
  0
LINE
  5
14A
330
141
100
AcDbEntity
  8
0
  6
Continuous
 62
     7
370
    18
100
AcDbLine
 10
174.9524906531
 20
206.8615289327
 30
0.0
 11
181.3024906531
 21
206.8615289327
 31
0.0
  0
MTEXT
  5
14B
330
141
100
AcDbEntity
  8
0
  6
Continuous
 62
     7
370
    18
100
AcDbMText
 10
155.0351646001
 20
211.3732660219
 30
0.0
 40
3.5
 41
0.0
 71
     1
 72
     1
  1
%%c
  7
SLDTEXTSTYLE2
 73
     1
 44
1.0
  0
MTEXT
  5
14C
330
141
100
AcDbEntity
  8
0
  6
Continuous
 62
     7
370
    18
100
AcDbMText
 10
160.3136019985
 20
211.4267381985
 30
0.0
 40
3.5
 41
0.0
 71
     1
 72
     1
  1
24.05
  7
SLDTEXTSTYLE2
 73
     1
 44
1.0
  0
ENDBLK
  5
143
330
141
100
AcDbEntity
  8
0
100
AcDbBlockEnd
  0
BLOCK
  5
150
330
14F
100
AcDbEntity
  8
0
100
AcDbBlockBegin
  2
_D_3
 70
     0
 10
0.0
 20
0.0
 30
0.0
  3
_D_3
  1

  0
INSERT
  5
152
330
14F
100
AcDbEntity
  8
0
  6
Continuous
 62
     7
370
    18
100
AcDbBlockReference
  2
_Closed
 10
169.4226811815
 20
149.0182693335
 30
-3.5
 41
3.556
 42
3.556
 50
210.0
  0
LINE
  5
153
330
14F
100
AcDbEntity
  8
0
  6
Continuous
 62
     7
370
    18
100
AcDbLine
 10
169.4226811815
 20
149.0182693335
 30
0.0
 11
199.3061863265
 21
166.2715190733
 31
0.0
  0
LINE
  5
154
330
14F
100
AcDbEntity
  8
0
  6
Continuous
 62
     7
370
    18
100
AcDbLine
 10
169.4226811815
 20
149.0182693335
 30
0.0
 11
162.9274906531
 21
145.2682693335
 31
0.0
  0
MTEXT
  5
155
330
14F
100
AcDbEntity
  8
0
  6
Continuous
 62
     7
370
    18
100
AcDbMText
 10
186.761323534
 20
164.2290235533
 30
0.0
 40
3.5
 41
0.0
 71
     1
 72
     1
  1
R7.50
  7
SLDTEXTSTYLE2
 11
0.8660254037844407
 21
0.4999999999999964
 31
0.0
 73
     1
 44
1.0
  0
ENDBLK
  5
151
330
14F
100
AcDbEntity
  8
0
100
AcDbBlockEnd
  0
BLOCK
  5
159
330
158
100
AcDbEntity
  8
0
100
AcDbBlockBegin
  2
_D_4
 70
     0
 10
0.0
 20
0.0
 30
0.0
  3
_D_4
  1

  0
INSERT
  5
15B
330
158
100
AcDbEntity
  8
0
  6
Continuous
 62
     7
370
    18
100
AcDbBlockReference
  2
_Closed
 10
207.5113748167
 20
145.2682693335
 30
-3.5
 41
3.556
 42
3.556
 50
90.0
  0
INSERT
  5
15C
330
158
100
AcDbEntity
  8
0
  6
Continuous
 62
     7
370
    18
100
AcDbBlockReference
  2
_Closed
 10
207.5113748167
 20
120.2682693335
 30
-3.5
 41
3.556
 42
3.556
 50
270.0
  0
LINE
  5
15D
330
158
100
AcDbEntity
  8
0
  6
Continuous
 62
     7
370
    18
100
AcDbLine
 10
171.4274906531
 20
145.2682693335
 30
0.0
 11
208.5113748167
 21
145.2682693335
 31
0.0
  0
LINE
  5
15E
330
158
100
AcDbEntity
  8
0
  6
Continuous
 62
     7
370
    18
100
AcDbLine
 10
171.4274906531
 20
120.2682693335
 30
0.0
 11
208.5113748167
 21
120.2682693335
 31
0.0
  0
LINE
  5
15F
330
158
100
AcDbEntity
  8
0
  6
Continuous
 62
     7
370
    18
100
AcDbLine
 10
207.5113748167
 20
145.2682693335
 30
0.0
 11
207.5113748167
 21
120.2682693335
 31
0.0
  0
MTEXT
  5
160
330
158
100
AcDbEntity
  8
0
  6
Continuous
 62
     7
370
    18
100
AcDbMText
 10
202.9996379021
 20
139.8642464782
 30
0.0
 40
3.5
 41
0.0
 71
     1
 72
     1
  1
25
  7
SLDTEXTSTYLE2
 11
-7.044195017643634E-15
 21
1.0
 31
0.0
 73
     1
 44
1.0
  0
ENDBLK
  5
15A
330
158
100
AcDbEntity
  8
0
100
AcDbBlockEnd
  0
BLOCK
  5
163
330
162
100
AcDbEntity
  8
0
100
AcDbBlockBegin
  2
_D_5
 70
     0
 10
0.0
 20
0.0
 30
0.0
  3
_D_5
  1

  0
INSERT
  5
165
330
162
100
AcDbEntity
  8
0
  6
Continuous
 62
     7
370
    18
100
AcDbBlockReference
  2
_Closed
 10
102.1520139284
 20
100.2682693335
 30
-3.5
 41
3.556
 42
3.556
 50
270.0
  0
INSERT
  5
166
330
162
100
AcDbEntity
  8
0
  6
Continuous
 62
     7
370
    18
100
AcDbBlockReference
  2
_Closed
 10
102.1520139284
 20
175.2682693335
 30
-3.5
 41
3.556
 42
3.556
 50
90.0
  0
LINE
  5
167
330
162
100
AcDbEntity
  8
0
  6
Continuous
 62
     7
370
    18
100
AcDbLine
 10
142.9274906531
 20
100.2682693335
 30
0.0
 11
101.1520139284
 21
100.2682693335
 31
0.0
  0
LINE
  5
168
330
162
100
AcDbEntity
  8
0
  6
Continuous
 62
     7
370
    18
100
AcDbLine
 10
142.9274906531
 20
175.2682693335
 30
0.0
 11
101.1520139284
 21
175.2682693335
 31
0.0
  0
LINE
  5
169
330
162
100
AcDbEntity
  8
0
  6
Continuous
 62
     7
370
    18
100
AcDbLine
 10
102.1520139284
 20
100.2682693335
 30
0.0
 11
102.1520139284
 21
175.2682693335
 31
0.0
  0
MTEXT
  5
16A
330
162
100
AcDbEntity
  8
0
  6
Continuous
 62
     7
370
    18
100
AcDbMText
 10
97.6402770139
 20
153.1280616913
 30
0.0
 40
3.5
 41
0.0
 71
     1
 72
     1
  1
75
  7
SLDTEXTSTYLE2
 11
6.123233995736766E-17
 21
1.0
 31
0.0
 73
     1
 44
1.0
  0
ENDBLK
  5
164
330
162
100
AcDbEntity
  8
0
100
AcDbBlockEnd
  0
BLOCK
  5
16D
330
16C
100
AcDbEntity
  8
0
100
AcDbBlockBegin
  2
_D_6
 70
     0
 10
0.0
 20
0.0
 30
0.0
  3
_D_6
  1

  0
INSERT
  5
16F
330
16C
100
AcDbEntity
  8
0
  6
Continuous
 62
     7
370
    18
100
AcDbBlockReference
  2
_Closed
 10
143.9274906531
 20
80.1702401794
 30
-3.5
 41
3.556
 42
3.556
 50
180.0
  0
INSERT
  5
170
330
16C
100
AcDbEntity
  8
0
  6
Continuous
 62
     7
370
    18
100
AcDbBlockReference
  2
_Closed
 10
181.9274906531
 20
80.1702401794
 30
-3.5
 41
3.556
 42
3.556
 50
0.0
  0
LINE
  5
171
330
16C
100
AcDbEntity
  8
0
  6
Continuous
 62
     7
370
    18
100
AcDbLine
 10
143.9274906531
 20
99.2682693335
 30
0.0
 11
143.9274906531
 21
79.1702401794
 31
0.0
  0
LINE
  5
172
330
16C
100
AcDbEntity
  8
0
  6
Continuous
 62
     7
370
    18
100
AcDbLine
 10
181.9274906531
 20
99.2682693335
 30
0.0
 11
181.9274906531
 21
79.1702401794
 31
0.0
  0
LINE
  5
173
330
16C
100
AcDbEntity
  8
0
  6
Continuous
 62
     7
370
    18
100
AcDbLine
 10
143.9274906531
 20
80.1702401794
 30
0.0
 11
181.9274906531
 21
80.1702401794
 31
0.0
  0
LINE
  5
174
330
16C
100
AcDbEntity
  8
0
  6
Continuous
 62
     7
370
    18
100
AcDbLine
 10
181.9274906531
 20
80.1702401794
 30
0.0
 11
185.1183019901
 21
80.1702401794
 31
0.0
  0
MTEXT
  5
175
330
16C
100
AcDbEntity
  8
0
  6
Continuous
 62
     7
370
    18
100
AcDbMText
 10
179.9460796031
 20
84.6819770939
 30
0.0
 40
3.5
 41
0.0
 71
     1
 72
     1
  1
38
  7
SLDTEXTSTYLE2
 73
     1
 44
1.0
  0
ENDBLK
  5
16E
330
16C
100
AcDbEntity
  8
0
100
AcDbBlockEnd
  0
BLOCK
  5
178
330
177
100
AcDbEntity
  8
0
100
AcDbBlockBegin
  2
_D_7
 70
     0
 10
0.0
 20
0.0
 30
0.0
  3
_D_7
  1

  0
INSERT
  5
17A
330
177
100
AcDbEntity
  8
0
  6
Continuous
 62
     7
370
    18
100
AcDbBlockReference
  2
_Closed
 10
146.3294144418
 20
107.7682693335
 30
-3.5
 41
3.556
 42
3.556
 50
330.0
  0
LINE
  5
17B
330
177
100
AcDbEntity
  8
0
  6
Continuous
 62
     7
370
    18
100
AcDbLine
 10
146.3294144418
 20
107.7682693335
 30
0.0
 11
124.9719179641
 21
120.0990256741
 31
0.0
  0
LINE
  5
17C
330
177
100
AcDbEntity
  8
0
  6
Continuous
 62
     7
370
    18
100
AcDbLine
 10
146.3294144418
 20
107.7682693335
 30
0.0
 11
148.9274906531
 21
106.2682693335
 31
0.0
  0
MTEXT
  5
17D
330
177
100
AcDbEntity
  8
0
  6
Continuous
 62
     7
370
    18
100
AcDbMText
 10
127.2193579131
 20
123.9917058528
 30
0.0
 40
3.5
 41
0.0
 71
     1
 72
     1
  1
R3
  7
SLDTEXTSTYLE2
 11
0.866025403784438
 21
-0.500000000000001
 31
0.0
 73
     1
 44
1.0
  0
ENDBLK
  5
179
330
177
100
AcDbEntity
  8
0
100
AcDbBlockEnd
  0
BLOCK
  5
180
330
17F
100
AcDbEntity
  8
0
100
AcDbBlockBegin
  2
_D_8
 70
     0
 10
0.0
 20
0.0
 30
0.0
  3
_D_8
  1

  0
INSERT
  5
182
330
17F
100
AcDbEntity
  8
0
  6
Continuous
 62
     7
370
    18
100
AcDbBlockReference
  2
_Closed
 10
154.9274906531
 20
90.2682693335
 30
-3.5
 41
3.556
 42
3.556
 50
180.0
  0
INSERT
  5
183
330
17F
100
AcDbEntity
  8
0
  6
Continuous
 62
     7
370
    18
100
AcDbBlockReference
  2
_Closed
 10
148.9274906531
 20
90.2682693335
 30
-3.5
 41
3.556
 42
3.556
 50
0.0
  0
LINE
  5
184
330
17F
100
AcDbEntity
  8
0
  6
Continuous
 62
     7
370
    18
100
AcDbLine
 10
154.9274906531
 20
102.2682693335
 30
0.0
 11
154.9274906531
 21
89.2682693335
 31
0.0
  0
LINE
  5
185
330
17F
100
AcDbEntity
  8
0
  6
Continuous
 62
     7
370
    18
100
AcDbLine
 10
148.9274906531
 20
102.2682693335
 30
0.0
 11
148.9274906531
 21
89.2682693335
 31
0.0
  0
LINE
  5
186
330
17F
100
AcDbEntity
  8
0
  6
Continuous
 62
     7
370
    18
100
AcDbLine
 10
154.9274906531
 20
90.2682693335
 30
0.0
 11
163.3893148925
 21
90.2682693335
 31
0.0
  0
LINE
  5
187
330
17F
100
AcDbEntity
  8
0
  6
Continuous
 62
     7
370
    18
100
AcDbLine
 10
154.9274906531
 20
90.2682693335
 30
0.0
 11
148.9274906531
 21
90.2682693335
 31
0.0
  0
LINE
  5
188
330
17F
100
AcDbEntity
  8
0
  6
Continuous
 62
     7
370
    18
100
AcDbLine
 10
148.9274906531
 20
90.2682693335
 30
0.0
 11
142.5774906531
 21
90.2682693335
 31
0.0
  0
MTEXT
  5
189
330
17F
100
AcDbEntity
  8
0
  6
Continuous
 62
     7
370
    18
100
AcDbMText
 10
155.5247660678
 20
94.7800064227
 30
0.0
 40
3.5
 41
0.0
 71
     1
 72
     1
  1
%%c
  7
SLDTEXTSTYLE2
 73
     1
 44
1.0
  0
MTEXT
  5
18A
330
17F
100
AcDbEntity
  8
0
  6
Continuous
 62
     7
370
    18
100
AcDbMText
 10
160.8032034661
 20
94.8334785993
 30
0.0
 40
3.5
 41
0.0
 71
     1
 72
     1
  1
6
  7
SLDTEXTSTYLE2
 73
     1
 44
1.0
  0
ENDBLK
  5
181
330
17F
100
AcDbEntity
  8
0
100
AcDbBlockEnd
  0
BLOCK
  5
18E
330
18D
100
AcDbEntity
  8
0
100
AcDbBlockBegin
  2
_D_9
 70
     0
 10
0.0
 20
0.0
 30
0.0
  3
_D_9
  1

  0
INSERT
  5
190
330
18D
100
AcDbEntity
  8
0
  6
Continuous
 62
     7
370
    18
100
AcDbBlockReference
  2
_Closed
 10
153.4774906531
 20
95.2671022161
 30
-3.5
 41
3.556
 42
3.556
 50
180.0
  0
INSERT
  5
191
330
18D
100
AcDbEntity
  8
0
  6
Continuous
 62
     7
370
    18
100
AcDbBlockReference
  2
_Closed
 10
150.3774906531
 20
95.2671022161
 30
-3.5
 41
3.556
 42
3.556
 50
0.0
  0
LINE
  5
192
330
18D
100
AcDbEntity
  8
0
  6
Continuous
 62
     7
370
    18
100
AcDbLine
 10
153.4774906531
 20
99.2682693335
 30
0.0
 11
153.4774906531
 21
94.2671022161
 31
0.0
  0
LINE
  5
193
330
18D
100
AcDbEntity
  8
0
  6
Continuous
 62
     7
370
    18
100
AcDbLine
 10
150.3774906531
 20
99.2682693335
 30
0.0
 11
150.3774906531
 21
94.2671022161
 31
0.0
  0
LINE
  5
194
330
18D
100
AcDbEntity
  8
0
  6
Continuous
 62
     7
370
    18
100
AcDbLine
 10
153.4774906531
 20
95.2671022161
 30
0.0
 11
169.3720969315
 21
95.2671022161
 31
0.0
  0
LINE
  5
195
330
18D
100
AcDbEntity
  8
0
  6
Continuous
 62
     7
370
    18
100
AcDbLine
 10
153.4774906531
 20
95.2671022161
 30
0.0
 11
150.3774906531
 21
95.2671022161
 31
0.0
  0
LINE
  5
196
330
18D
100
AcDbEntity
  8
0
  6
Continuous
 62
     7
370
    18
100
AcDbLine
 10
150.3774906531
 20
95.2671022161
 30
0.0
 11
144.0274906531
 21
95.2671022161
 31
0.0
  0
MTEXT
  5
197
330
18D
100
AcDbEntity
  8
0
  6
Continuous
 62
     7
370
    18
100
AcDbMText
 10
155.0422695409
 20
99.7788393053
 30
0.0
 40
3.5
 41
0.0
 71
     1
 72
     1
  1
%%c
  7
SLDTEXTSTYLE2
 73
     1
 44
1.0
  0
MTEXT
  5
198
330
18D
100
AcDbEntity
  8
0
  6
Continuous
 62
     7
370
    18
100
AcDbMText
 10
160.3207069393
 20
99.8323114819
 30
0.0
 40
3.5
 41
0.0
 71
     1
 72
     1
  1
3.10
  7
SLDTEXTSTYLE2
 73
     1
 44
1.0
  0
ENDBLK
  5
18F
330
18D
100
AcDbEntity
  8
0
100
AcDbBlockEnd
  0
BLOCK
  5
19B
330
19A
100
AcDbEntity
  8
0
100
AcDbBlockBegin
  2
_D_10
 70
     0
 10
0.0
 20
0.0
 30
0.0
  3
_D_10
  1

  0
INSERT
  5
19D
330
19A
100
AcDbEntity
  8
0
  6
Continuous
 62
     7
370
    18
100
AcDbBlockReference
  2
_Closed
 10
137.7276428799
 20
103.2682693335
 30
-3.5
 41
3.556
 42
3.556
 50
270.0
  0
INSERT
  5
19E
330
19A
100
AcDbEntity
  8
0
  6
Continuous
 62
     7
370
    18
100
AcDbBlockReference
  2
_Closed
 10
137.7276428799
 20
100.2682693335
 30
-3.5
 41
3.556
 42
3.556
 50
90.0
  0
LINE
  5
19F
330
19A
100
AcDbEntity
  8
0
  6
Continuous
 62
     7
370
    18
100
AcDbLine
 10
147.9274906531
 20
103.2682693335
 30
0.0
 11
136.7276428799
 21
103.2682693335
 31
0.0
  0
LINE
  5
1A0
330
19A
100
AcDbEntity
  8
0
  6
Continuous
 62
     7
370
    18
100
AcDbLine
 10
142.9274906531
 20
100.2682693335
 30
0.0
 11
136.7276428799
 21
100.2682693335
 31
0.0
  0
LINE
  5
1A1
330
19A
100
AcDbEntity
  8
0
  6
Continuous
 62
     7
370
    18
100
AcDbLine
 10
137.7276428799
 20
103.2682693335
 30
0.0
 11
137.7276428799
 21
109.6182693335
 31
0.0
  0
LINE
  5
1A2
330
19A
100
AcDbEntity
  8
0
  6
Continuous
 62
     7
370
    18
100
AcDbLine
 10
137.7276428799
 20
103.2682693335
 30
0.0
 11
137.7276428799
 21
100.2682693335
 31
0.0
  0
LINE
  5
1A3
330
19A
100
AcDbEntity
  8
0
  6
Continuous
 62
     7
370
    18
100
AcDbLine
 10
137.7276428799
 20
100.2682693335
 30
0.0
 11
137.7276428799
 21
93.9182693335
 31
0.0
  0
MTEXT
  5
1A4
330
19A
100
AcDbEntity
  8
0
  6
Continuous
 62
     7
370
    18
100
AcDbMText
 10
133.2159059653
 20
100.7059202173
 30
0.0
 40
3.5
 41
0.0
 71
     1
 72
     1
  1
3
  7
SLDTEXTSTYLE2
 11
-7.044195017643634E-15
 21
1.0
 31
0.0
 73
     1
 44
1.0
  0
ENDBLK
  5
19C
330
19A
100
AcDbEntity
  8
0
100
AcDbBlockEnd
  0
BLOCK
  5
1A7
330
1A6
100
AcDbEntity
  8
0
100
AcDbBlockBegin
  2
_D_11
 70
     0
 10
0.0
 20
0.0
 30
0.0
  3
_D_11
  1

  0
INSERT
  5
1A9
330
1A6
100
AcDbEntity
  8
0
  6
Continuous
 62
     7
370
    18
100
AcDbBlockReference
  2
_Closed
 10
207.5113748167
 20
120.2682693335
 30
-3.5
 41
3.556
 42
3.556
 50
90.0
  0
INSERT
  5
1AA
330
1A6
100
AcDbEntity
  8
0
  6
Continuous
 62
     7
370
    18
100
AcDbBlockReference
  2
_Closed
 10
207.5113748167
 20
100.2682693335
 30
-3.5
 41
3.556
 42
3.556
 50
270.0
  0
LINE
  5
1AB
330
1A6
100
AcDbEntity
  8
0
  6
Continuous
 62
     7
370
    18
100
AcDbLine
 10
163.9274906531
 20
120.2682693335
 30
0.0
 11
208.5113748167
 21
120.2682693335
 31
0.0
  0
LINE
  5
1AC
330
1A6
100
AcDbEntity
  8
0
  6
Continuous
 62
     7
370
    18
100
AcDbLine
 10
182.9274906531
 20
100.2682693335
 30
0.0
 11
208.5113748167
 21
100.2682693335
 31
0.0
  0
LINE
  5
1AD
330
1A6
100
AcDbEntity
  8
0
  6
Continuous
 62
     7
370
    18
100
AcDbLine
 10
207.5113748167
 20
120.2682693335
 30
0.0
 11
207.5113748167
 21
100.2682693335
 31
0.0
  0
MTEXT
  5
1AE
330
1A6
100
AcDbEntity
  8
0
  6
Continuous
 62
     7
370
    18
100
AcDbMText
 10
202.9996379021
 20
106.1491207789
 30
0.0
 40
3.5
 41
0.0
 71
     1
 72
     1
  1
20
  7
SLDTEXTSTYLE2
 11
-7.044195017643634E-15
 21
1.0
 31
0.0
 73
     1
 44
1.0
  0
ENDBLK
  5
1A8
330
1A6
100
AcDbEntity
  8
0
100
AcDbBlockEnd
  0
BLOCK
  5
1B0
330
1AF
100
AcDbEntity
  8
0
100
AcDbBlockBegin
  2
SW_CENTERMARKSYMBOL_0
 70
     0
 10
0.0
 20
0.0
 30
0.0
  3
SW_CENTERMARKSYMBOL_0
  1

  0
LINE
  5
1B2
330
1AF
100
AcDbEntity
  8
0
  6
Continuous
 62
     0
370
     0
100
AcDbLine
 10
0.0
 20
0.0
 30
0.0
 11
0.0
 21
2.5
 31
0.0
  0
LINE
  5
1B3
330
1AF
100
AcDbEntity
  8
0
  6
Continuous
 62
     0
370
     0
100
AcDbLine
 10
0.0
 20
0.0
 30
0.0
 11
-2.5
 21
0.0
 31
0.0
  0
LINE
  5
1B4
330
1AF
100
AcDbEntity
  8
0
  6
Continuous
 62
     0
370
     0
100
AcDbLine
 10
0.0
 20
0.0
 30
0.0
 11
0.0
 21
-2.5
 31
0.0
  0
LINE
  5
1B5
330
1AF
100
AcDbEntity
  8
0
  6
Continuous
 62
     0
370
     0
100
AcDbLine
 10
0.0
 20
0.0
 30
0.0
 11
2.5
 21
0.0
 31
0.0
  0
LINE
  5
1B6
330
1AF
100
AcDbEntity
  8
0
  6
Continuous
 62
     0
370
     0
100
AcDbLine
 10
0.0
 20
5.0
 30
0.0
 11
0.0
 21
12.5
 31
0.0
  0
LINE
  5
1B7
330
1AF
100
AcDbEntity
  8
0
  6
Continuous
 62
     0
370
     0
100
AcDbLine
 10
-5.0
 20
0.0
 30
0.0
 11
-12.5
 21
0.0
 31
0.0
  0
LINE
  5
1B8
330
1AF
100
AcDbEntity
  8
0
  6
Continuous
 62
     0
370
     0
100
AcDbLine
 10
0.0
 20
-5.0
 30
0.0
 11
0.0
 21
-12.5
 31
0.0
  0
LINE
  5
1B9
330
1AF
100
AcDbEntity
  8
0
  6
Continuous
 62
     0
370
     0
100
AcDbLine
 10
5.0
 20
0.0
 30
0.0
 11
12.5
 21
0.0
 31
0.0
  0
ENDBLK
  5
1B1
330
1AF
100
AcDbEntity
  8
0
100
AcDbBlockEnd
  0
BLOCK
  5
1D2
330
1D1
100
AcDbEntity
  8
0
100
AcDbBlockBegin
  2
_D_12
 70
     0
 10
0.0
 20
0.0
 30
0.0
  3
_D_12
  1

  0
INSERT
  5
1D4
330
1D1
100
AcDbEntity
  8
0
  6
Continuous
 62
     7
370
    18
100
AcDbBlockReference
  2
_Closed
 10
83.3248710614
 20
312.09
 30
-47.0
 41
3.556
 42
3.556
 50
90.0
  0
INSERT
  5
1D5
330
1D1
100
AcDbEntity
  8
0
  6
Continuous
 62
     7
370
    18
100
AcDbBlockReference
  2
_Closed
 10
83.3248710614
 20
319.09
 30
-47.0
 41
3.556
 42
3.556
 50
270.0
  0
LINE
  5
1D6
330
1D1
100
AcDbEntity
  8
0
  6
Continuous
 62
     7
370
    18
100
AcDbLine
 10
142.9274906531
 20
312.09
 30
0.0
 11
82.3248710614
 21
312.09
 31
0.0
  0
LINE
  5
1D7
330
1D1
100
AcDbEntity
  8
0
  6
Continuous
 62
     7
370
    18
100
AcDbLine
 10
142.9274906531
 20
319.09
 30
0.0
 11
82.3248710614
 21
319.09
 31
0.0
  0
LINE
  5
1D8
330
1D1
100
AcDbEntity
  8
0
  6
Continuous
 62
     7
370
    18
100
AcDbLine
 10
83.3248710614
 20
312.09
 30
0.0
 11
83.3248710614
 21
305.74
 31
0.0
  0
LINE
  5
1D9
330
1D1
100
AcDbEntity
  8
0
  6
Continuous
 62
     7
370
    18
100
AcDbLine
 10
83.3248710614
 20
312.09
 30
0.0
 11
83.3248710614
 21
319.09
 31
0.0
  0
LINE
  5
1DA
330
1D1
100
AcDbEntity
  8
0
  6
Continuous
 62
     7
370
    18
100
AcDbLine
 10
83.3248710614
 20
319.09
 30
0.0
 11
83.3248710614
 21
325.44
 31
0.0
  0
MTEXT
  5
1DB
330
1D1
100
AcDbEntity
  8
0
  6
Continuous
 62
     7
370
    18
100
AcDbMText
 10
78.8131341469
 20
315.9332130569
 30
0.0
 40
3.5
 41
0.0
 71
     1
 72
     1
  1
7
  7
SLDTEXTSTYLE2
 11
6.123233995736766E-17
 21
1.0
 31
0.0
 73
     1
 44
1.0
  0
ENDBLK
  5
1D3
330
1D1
100
AcDbEntity
  8
0
100
AcDbBlockEnd
  0
BLOCK
  5
1DE
330
1DD
100
AcDbEntity
  8
0
100
AcDbBlockBegin
  2
_D_13
 70
     0
 10
0.0
 20
0.0
 30
0.0
  3
_D_13
  1

  0
INSERT
  5
1E0
330
1DD
100
AcDbEntity
  8
0
  6
Continuous
 62
     7
370
    18
100
AcDbBlockReference
  2
_Closed
 10
181.9274906531
 20
336.4585934048
 30
-47.0
 41
3.556
 42
3.556
 50
0.0
  0
INSERT
  5
1E1
330
1DD
100
AcDbEntity
  8
0
  6
Continuous
 62
     7
370
    18
100
AcDbBlockReference
  2
_Closed
 10
143.9274906531
 20
336.4585934048
 30
-47.0
 41
3.556
 42
3.556
 50
180.0
  0
LINE
  5
1E2
330
1DD
100
AcDbEntity
  8
0
  6
Continuous
 62
     7
370
    18
100
AcDbLine
 10
181.9274906531
 20
320.09
 30
0.0
 11
181.9274906531
 21
337.4585934048
 31
0.0
  0
LINE
  5
1E3
330
1DD
100
AcDbEntity
  8
0
  6
Continuous
 62
     7
370
    18
100
AcDbLine
 10
143.9274906531
 20
320.09
 30
0.0
 11
143.9274906531
 21
337.4585934048
 31
0.0
  0
LINE
  5
1E4
330
1DD
100
AcDbEntity
  8
0
  6
Continuous
 62
     7
370
    18
100
AcDbLine
 10
181.9274906531
 20
336.4585934048
 30
0.0
 11
143.9274906531
 21
336.4585934048
 31
0.0
  0
MTEXT
  5
1E5
330
1DD
100
AcDbEntity
  8
0
  6
Continuous
 62
     7
370
    18
100
AcDbMText
 10
155.5955496067
 20
340.970330494
 30
0.0
 40
3.5
 41
0.0
 71
     1
 72
     1
  1
%%c
  7
SLDTEXTSTYLE2
 73
     1
 44
1.0
  0
MTEXT
  5
1E6
330
1DD
100
AcDbEntity
  8
0
  6
Continuous
 62
     7
370
    18
100
AcDbMText
 10
160.8739870051
 20
341.0238026707
 30
0.0
 40
3.5
 41
0.0
 71
     1
 72
     1
  1
38
  7
SLDTEXTSTYLE2
 73
     1
 44
1.0
  0
ENDBLK
  5
1DF
330
1DD
100
AcDbEntity
  8
0
100
AcDbBlockEnd
  0
BLOCK
  5
1E9
330
1E8
100
AcDbEntity
  8
0
100
AcDbBlockBegin
  2
_D_14
 70
     0
 10
0.0
 20
0.0
 30
0.0
  3
_D_14
  1

  0
INSERT
  5
1EB
330
1E8
100
AcDbEntity
  8
0
  6
Continuous
 62
     7
370
    18
100
AcDbBlockReference
  2
_Closed
 10
173.9274906531
 20
330.2377310749
 30
-47.0
 41
3.556
 42
3.556
 50
0.0
  0
INSERT
  5
1EC
330
1E8
100
AcDbEntity
  8
0
  6
Continuous
 62
     7
370
    18
100
AcDbBlockReference
  2
_Closed
 10
151.9274906531
 20
330.2377310749
 30
-47.0
 41
3.556
 42
3.556
 50
180.0
  0
LINE
  5
1ED
330
1E8
100
AcDbEntity
  8
0
  6
Continuous
 62
     7
370
    18
100
AcDbLine
 10
173.9274906531
 20
316.59
 30
0.0
 11
173.9274906531
 21
331.2377310749
 31
0.0
  0
LINE
  5
1EE
330
1E8
100
AcDbEntity
  8
0
  6
Continuous
 62
     7
370
    18
100
AcDbLine
 10
151.9274906531
 20
316.59
 30
0.0
 11
151.9274906531
 21
331.2377310749
 31
0.0
  0
LINE
  5
1EF
330
1E8
100
AcDbEntity
  8
0
  6
Continuous
 62
     7
370
    18
100
AcDbLine
 10
173.9274906531
 20
330.2377310749
 30
0.0
 11
151.9274906531
 21
330.2377310749
 31
0.0
  0
MTEXT
  5
1F0
330
1E8
100
AcDbEntity
  8
0
  6
Continuous
 62
     7
370
    18
100
AcDbMText
 10
164.3149905401
 20
334.7494679895
 30
0.0
 40
3.5
 41
0.0
 71
     1
 72
     1
  1
22
  7
SLDTEXTSTYLE2
 73
     1
 44
1.0
  0
ENDBLK
  5
1EA
330
1E8
100
AcDbEntity
  8
0
100
AcDbBlockEnd
  0
BLOCK
  5
208
330
207
100
AcDbEntity
  8
0
100
AcDbBlockBegin
  2
_D_15
 70
     0
 10
0.0
 20
0.0
 30
0.0
  3
_D_15
  1

  0
INSERT
  5
20A
330
207
100
AcDbEntity
  8
0
  6
Continuous
 62
     7
370
    18
100
AcDbBlockReference
  2
_Closed
 10
345.05
 20
213.9141605236
 30
0.0
 41
3.556
 42
3.556
 50
180.0
  0
INSERT
  5
20B
330
207
100
AcDbEntity
  8
0
  6
Continuous
 62
     7
370
    18
100
AcDbBlockReference
  2
_Closed
 10
338.05
 20
213.9141605236
 30
0.0
 41
3.556
 42
3.556
 50
0.0
  0
LINE
  5
20C
330
207
100
AcDbEntity
  8
0
  6
Continuous
 62
     7
370
    18
100
AcDbLine
 10
345.05
 20
195.2682693335
 30
0.0
 11
345.05
 21
214.9141605236
 31
0.0
  0
LINE
  5
20D
330
207
100
AcDbEntity
  8
0
  6
Continuous
 62
     7
370
    18
100
AcDbLine
 10
338.05
 20
195.2682693335
 30
0.0
 11
338.05
 21
214.9141605236
 31
0.0
  0
LINE
  5
20E
330
207
100
AcDbEntity
  8
0
  6
Continuous
 62
     7
370
    18
100
AcDbLine
 10
345.05
 20
213.9141605236
 30
0.0
 11
351.4
 21
213.9141605236
 31
0.0
  0
LINE
  5
20F
330
207
100
AcDbEntity
  8
0
  6
Continuous
 62
     7
370
    18
100
AcDbLine
 10
345.05
 20
213.9141605236
 30
0.0
 11
338.05
 21
213.9141605236
 31
0.0
  0
LINE
  5
210
330
207
100
AcDbEntity
  8
0
  6
Continuous
 62
     7
370
    18
100
AcDbLine
 10
338.05
 20
213.9141605236
 30
0.0
 11
331.7
 21
213.9141605236
 31
0.0
  0
MTEXT
  5
211
330
207
100
AcDbEntity
  8
0
  6
Continuous
 62
     7
370
    18
100
AcDbMText
 10
340.3559445734
 20
218.4258974382
 30
0.0
 40
3.5
 41
0.0
 71
     1
 72
     1
  1
7
  7
SLDTEXTSTYLE2
 73
     1
 44
1.0
  0
ENDBLK
  5
209
330
207
100
AcDbEntity
  8
0
100
AcDbBlockEnd
  0
BLOCK
  5
214
330
213
100
AcDbEntity
  8
0
100
AcDbBlockBegin
  2
_D_16
 70
     0
 10
0.0
 20
0.0
 30
0.0
  3
_D_16
  1

  0
INSERT
  5
216
330
213
100
AcDbEntity
  8
0
  6
Continuous
 62
     7
370
    18
100
AcDbBlockReference
  2
_Closed
 10
300.1682692296
 20
194.2682693335
 30
0.0
 41
3.556
 42
3.556
 50
90.0
  0
INSERT
  5
217
330
213
100
AcDbEntity
  8
0
  6
Continuous
 62
     7
370
    18
100
AcDbBlockReference
  2
_Closed
 10
300.1682692296
 20
100.2682693335
 30
0.0
 41
3.556
 42
3.556
 50
270.0
  0
LINE
  5
218
330
213
100
AcDbEntity
  8
0
  6
Continuous
 62
     7
370
    18
100
AcDbLine
 10
337.05
 20
194.2682693335
 30
0.0
 11
299.1682692296
 21
194.2682693335
 31
0.0
  0
LINE
  5
219
330
213
100
AcDbEntity
  8
0
  6
Continuous
 62
     7
370
    18
100
AcDbLine
 10
337.05
 20
100.2682693335
 30
0.0
 11
299.1682692296
 21
100.2682693335
 31
0.0
  0
LINE
  5
21A
330
213
100
AcDbEntity
  8
0
  6
Continuous
 62
     7
370
    18
100
AcDbLine
 10
300.1682692296
 20
194.2682693335
 30
0.0
 11
300.1682692296
 21
100.2682693335
 31
0.0
  0
MTEXT
  5
21B
330
213
100
AcDbEntity
  8
0
  6
Continuous
 62
     7
370
    18
100
AcDbMText
 10
295.6565323151
 20
173.8942189691
 30
0.0
 40
3.5
 41
0.0
 71
     1
 72
     1
  1
94
  7
SLDTEXTSTYLE2
 11
-6.156016597943509E-15
 21
1.0
 31
0.0
 73
     1
 44
1.0
  0
ENDBLK
  5
215
330
213
100
AcDbEntity
  8
0
100
AcDbBlockEnd
  0
BLOCK
  5
21E
330
21D
100
AcDbEntity
  8
0
100
AcDbBlockBegin
  2
_D_17
 70
     0
 10
0.0
 20
0.0
 30
0.0
  3
_D_17
  1

  0
INSERT
  5
220
330
21D
100
AcDbEntity
  8
0
  6
Continuous
 62
     7
370
    18
100
AcDbBlockReference
  2
_Closed
 10
320.4315783871
 20
185.2682693335
 30
0.0
 41
3.556
 42
3.556
 50
270.0
  0
INSERT
  5
221
330
21D
100
AcDbEntity
  8
0
  6
Continuous
 62
     7
370
    18
100
AcDbBlockReference
  2
_Closed
 10
320.4315783871
 20
165.2682693335
 30
0.0
 41
3.556
 42
3.556
 50
90.0
  0
LINE
  5
222
330
21D
100
AcDbEntity
  8
0
  6
Continuous
 62
     7
370
    18
100
AcDbLine
 10
337.05
 20
185.2682693335
 30
0.0
 11
319.4315783871
 21
185.2682693335
 31
0.0
  0
LINE
  5
223
330
21D
100
AcDbEntity
  8
0
  6
Continuous
 62
     7
370
    18
100
AcDbLine
 10
337.05
 20
165.2682693335
 30
0.0
 11
319.4315783871
 21
165.2682693335
 31
0.0
  0
LINE
  5
224
330
21D
100
AcDbEntity
  8
0
  6
Continuous
 62
     7
370
    18
100
AcDbLine
 10
320.4315783871
 20
185.2682693335
 30
0.0
 11
320.4315783871
 21
191.6182693335
 31
0.0
  0
LINE
  5
225
330
21D
100
AcDbEntity
  8
0
  6
Continuous
 62
     7
370
    18
100
AcDbLine
 10
320.4315783871
 20
185.2682693335
 30
0.0
 11
320.4315783871
 21
165.2682693335
 31
0.0
  0
LINE
  5
226
330
21D
100
AcDbEntity
  8
0
  6
Continuous
 62
     7
370
    18
100
AcDbLine
 10
320.4315783871
 20
165.2682693335
 30
0.0
 11
320.4315783871
 21
158.9182693335
 31
0.0
  0
MTEXT
  5
227
330
21D
100
AcDbEntity
  8
0
  6
Continuous
 62
     7
370
    18
100
AcDbMText
 10
315.9198412979
 20
166.6090657149
 30
0.0
 40
3.5
 41
0.0
 71
     1
 72
     1
  1
%%c
  7
SLDTEXTSTYLE2
 11
-7.044195017643634E-15
 21
1.0
 31
0.0
 73
     1
 44
1.0
  0
MTEXT
  5
228
330
21D
100
AcDbEntity
  8
0
  6
Continuous
 62
     7
370
    18
100
AcDbMText
 10
315.8663691212
 20
171.8875031132
 30
0.0
 40
3.5
 41
0.0
 71
     1
 72
     1
  1
20
  7
SLDTEXTSTYLE2
 11
-7.044195017643634E-15
 21
1.0
 31
0.0
 73
     1
 44
1.0
  0
ENDBLK
  5
21F
330
21D
100
AcDbEntity
  8
0
100
AcDbBlockEnd
  0
BLOCK
  5
22B
330
22A
100
AcDbEntity
  8
0
100
AcDbBlockBegin
  2
_D_18
 70
     0
 10
0.0
 20
0.0
 30
0.0
  3
_D_18
  1

  0
INSERT
  5
22D
330
22A
100
AcDbEntity
  8
0
  6
Continuous
 62
     7
370
    18
100
AcDbBlockReference
  2
_Closed
 10
340.05
 20
201.3378358917
 30
0.0
 41
3.556
 42
3.556
 50
180.0
  0
INSERT
  5
22E
330
22A
100
AcDbEntity
  8
0
  6
Continuous
 62
     7
370
    18
100
AcDbBlockReference
  2
_Closed
 10
338.05
 20
201.3378358917
 30
0.0
 41
3.556
 42
3.556
 50
0.0
  0
LINE
  5
22F
330
22A
100
AcDbEntity
  8
0
  6
Continuous
 62
     7
370
    18
100
AcDbLine
 10
340.05
 20
188.2932693335
 30
0.0
 11
340.05
 21
202.3378358917
 31
0.0
  0
LINE
  5
230
330
22A
100
AcDbEntity
  8
0
  6
Continuous
 62
     7
370
    18
100
AcDbLine
 10
338.05
 20
186.2682693335
 30
0.0
 11
338.05
 21
202.3378358917
 31
0.0
  0
LINE
  5
231
330
22A
100
AcDbEntity
  8
0
  6
Continuous
 62
     7
370
    18
100
AcDbLine
 10
340.05
 20
201.3378358917
 30
0.0
 11
346.4
 21
201.3378358917
 31
0.0
  0
LINE
  5
232
330
22A
100
AcDbEntity
  8
0
  6
Continuous
 62
     7
370
    18
100
AcDbLine
 10
340.05
 20
201.3378358917
 30
0.0
 11
338.05
 21
201.3378358917
 31
0.0
  0
LINE
  5
233
330
22A
100
AcDbEntity
  8
0
  6
Continuous
 62
     7
370
    18
100
AcDbLine
 10
338.05
 20
201.3378358917
 30
0.0
 11
332.9116190161
 21
201.3378358917
 31
0.0
  0
MTEXT
  5
234
330
22A
100
AcDbEntity
  8
0
  6
Continuous
 62
     7
370
    18
100
AcDbMText
 10
332.9116190161
 20
205.8495728063
 30
0.0
 40
3.5
 41
0.0
 71
     1
 72
     1
  1
2
  7
SLDTEXTSTYLE2
 73
     1
 44
1.0
  0
ENDBLK
  5
22C
330
22A
100
AcDbEntity
  8
0
100
AcDbBlockEnd
  0
BLOCK
  5
237
330
236
100
AcDbEntity
  8
0
100
AcDbBlockBegin
  2
_D_19
 70
     0
 10
0.0
 20
0.0
 30
0.0
  3
_D_19
  1

  0
INSERT
  5
239
330
236
100
AcDbEntity
  8
0
  6
Continuous
 62
     7
370
    18
100
AcDbBlockReference
  2
_Closed
 10
345.05
 20
196.2834507168
 30
0.0
 41
3.556
 42
3.556
 50
180.0
  0
INSERT
  5
23A
330
236
100
AcDbEntity
  8
0
  6
Continuous
 62
     7
370
    18
100
AcDbBlockReference
  2
_Closed
 10
340.05
 20
196.2834507168
 30
0.0
 41
3.556
 42
3.556
 50
0.0
  0
LINE
  5
23B
330
236
100
AcDbEntity
  8
0
  6
Continuous
 62
     7
370
    18
100
AcDbLine
 10
345.05
 20
188.2932693335
 30
0.0
 11
345.05
 21
197.2834507168
 31
0.0
  0
LINE
  5
23C
330
236
100
AcDbEntity
  8
0
  6
Continuous
 62
     7
370
    18
100
AcDbLine
 10
340.05
 20
188.2932693335
 30
0.0
 11
340.05
 21
197.2834507168
 31
0.0
  0
LINE
  5
23D
330
236
100
AcDbEntity
  8
0
  6
Continuous
 62
     7
370
    18
100
AcDbLine
 10
345.05
 20
196.2834507168
 30
0.0
 11
352.5223384691
 21
196.2834507168
 31
0.0
  0
LINE
  5
23E
330
236
100
AcDbEntity
  8
0
  6
Continuous
 62
     7
370
    18
100
AcDbLine
 10
345.05
 20
196.2834507168
 30
0.0
 11
340.05
 21
196.2834507168
 31
0.0
  0
LINE
  5
23F
330
236
100
AcDbEntity
  8
0
  6
Continuous
 62
     7
370
    18
100
AcDbLine
 10
340.05
 20
196.2834507168
 30
0.0
 11
333.7
 21
196.2834507168
 31
0.0
  0
MTEXT
  5
240
330
236
100
AcDbEntity
  8
0
  6
Continuous
 62
     7
370
    18
100
AcDbMText
 10
349.9362272756
 20
200.7951876314
 30
0.0
 40
3.5
 41
0.0
 71
     1
 72
     1
  1
5
  7
SLDTEXTSTYLE2
 73
     1
 44
1.0
  0
ENDBLK
  5
238
330
236
100
AcDbEntity
  8
0
100
AcDbBlockEnd
  0
BLOCK
  5
243
330
242
100
AcDbEntity
  8
0
100
AcDbBlockBegin
  2
_D_20
 70
     0
 10
0.0
 20
0.0
 30
0.0
  3
_D_20
  1

  0
INSERT
  5
245
330
242
100
AcDbEntity
  8
0
  6
Continuous
 62
     7
370
    18
100
AcDbBlockReference
  2
_Closed
 10
373.7868626948
 20
187.2932693335
 30
0.0
 41
3.556
 42
3.556
 50
270.0
  0
INSERT
  5
246
330
242
100
AcDbEntity
  8
0
  6
Continuous
 62
     7
370
    18
100
AcDbBlockReference
  2
_Closed
 10
373.7868626948
 20
163.2432693335
 30
0.0
 41
3.556
 42
3.556
 50
90.0
  0
LINE
  5
247
330
242
100
AcDbEntity
  8
0
  6
Continuous
 62
     7
370
    18
100
AcDbLine
 10
346.05
 20
187.2932693335
 30
0.0
 11
374.7868626948
 21
187.2932693335
 31
0.0
  0
LINE
  5
248
330
242
100
AcDbEntity
  8
0
  6
Continuous
 62
     7
370
    18
100
AcDbLine
 10
346.05
 20
163.2432693335
 30
0.0
 11
374.7868626948
 21
163.2432693335
 31
0.0
  0
LINE
  5
249
330
242
100
AcDbEntity
  8
0
  6
Continuous
 62
     7
370
    18
100
AcDbLine
 10
373.7868626948
 20
187.2932693335
 30
0.0
 11
373.7868626948
 21
193.6432693335
 31
0.0
  0
LINE
  5
24A
330
242
100
AcDbEntity
  8
0
  6
Continuous
 62
     7
370
    18
100
AcDbLine
 10
373.7868626948
 20
187.2932693335
 30
0.0
 11
373.7868626948
 21
163.2432693335
 31
0.0
  0
LINE
  5
24B
330
242
100
AcDbEntity
  8
0
  6
Continuous
 62
     7
370
    18
100
AcDbLine
 10
373.7868626948
 20
163.2432693335
 30
0.0
 11
373.7868626948
 21
156.8932693335
 31
0.0
  0
MTEXT
  5
24C
330
242
100
AcDbEntity
  8
0
  6
Continuous
 62
     7
370
    18
100
AcDbMText
 10
369.2751256056
 20
165.9887736345
 30
0.0
 40
3.5
 41
0.0
 71
     1
 72
     1
  1
%%c
  7
SLDTEXTSTYLE2
 11
-7.044195017643634E-15
 21
1.0
 31
0.0
 73
     1
 44
1.0
  0
MTEXT
  5
24D
330
242
100
AcDbEntity
  8
0
  6
Continuous
 62
     7
370
    18
100
AcDbMText
 10
369.2216534289
 20
171.2672110329
 30
0.0
 40
3.5
 41
0.0
 71
     1
 72
     1
  1
24.05
  7
SLDTEXTSTYLE2
 11
-7.044195017643634E-15
 21
1.0
 31
0.0
 73
     1
 44
1.0
  0
ENDBLK
  5
244
330
242
100
AcDbEntity
  8
0
100
AcDbBlockEnd
  0
BLOCK
  5
250
330
24F
100
AcDbEntity
  8
0
100
AcDbBlockBegin
  2
_D_21
 70
     0
 10
0.0
 20
0.0
 30
0.0
  3
_D_21
  1

  0
INSERT
  5
252
330
24F
100
AcDbEntity
  8
0
  6
Continuous
 62
     7
370
    18
100
AcDbBlockReference
  2
_Closed
 10
362.9509612725
 20
175.2682693335
 30
0.0
 41
3.556
 42
3.556
 50
270.0
  0
INSERT
  5
253
330
24F
100
AcDbEntity
  8
0
  6
Continuous
 62
     7
370
    18
100
AcDbBlockReference
  2
_Closed
 10
362.9509612725
 20
194.2682693335
 30
0.0
 41
3.556
 42
3.556
 50
90.0
  0
LINE
  5
254
330
24F
100
AcDbEntity
  8
0
  6
Continuous
 62
     7
370
    18
100
AcDbLine
 10
346.05
 20
175.2682693335
 30
0.0
 11
363.9509612725
 21
175.2682693335
 31
0.0
  0
LINE
  5
255
330
24F
100
AcDbEntity
  8
0
  6
Continuous
 62
     7
370
    18
100
AcDbLine
 10
346.05
 20
194.2682693335
 30
0.0
 11
363.9509612725
 21
194.2682693335
 31
0.0
  0
LINE
  5
256
330
24F
100
AcDbEntity
  8
0
  6
Continuous
 62
     7
370
    18
100
AcDbLine
 10
362.9509612725
 20
175.2682693335
 30
0.0
 11
362.9509612725
 21
194.2682693335
 31
0.0
  0
MTEXT
  5
257
330
24F
100
AcDbEntity
  8
0
  6
Continuous
 62
     7
370
    18
100
AcDbMText
 10
358.439224358
 20
182.9874294885
 30
0.0
 40
3.5
 41
0.0
 71
     1
 72
     1
  1
19
  7
SLDTEXTSTYLE2
 11
6.123233995736766E-17
 21
1.0
 31
0.0
 73
     1
 44
1.0
  0
ENDBLK
  5
251
330
24F
100
AcDbEntity
  8
0
100
AcDbBlockEnd
  0
BLOCK
  5
25B
330
25A
100
AcDbEntity
  8
0
100
AcDbBlockBegin
  2
_D_22
 70
     0
 10
0.0
 20
0.0
 30
0.0
  3
_D_22
  1

  0
INSERT
  5
25D
330
25A
100
AcDbEntity
  8
0
  6
Continuous
 62
     7
370
    18
100
AcDbBlockReference
  2
_Closed
 10
310.05
 20
152.7682693335
 30
0.0
 41
3.556
 42
3.556
 50
270.0
  0
INSERT
  5
25E
330
25A
100
AcDbEntity
  8
0
  6
Continuous
 62
     7
370
    18
100
AcDbBlockReference
  2
_Closed
 10
310.05
 20
194.2682693335
 30
0.0
 41
3.556
 42
3.556
 50
90.0
  0
LINE
  5
25F
330
25A
100
AcDbEntity
  8
0
  6
Continuous
 62
     7
370
    18
100
AcDbLine
 10
337.05
 20
152.7682693335
 30
0.0
 11
309.05
 21
152.7682693335
 31
0.0
  0
LINE
  5
260
330
25A
100
AcDbEntity
  8
0
  6
Continuous
 62
     7
370
    18
100
AcDbLine
 10
337.05
 20
194.2682693335
 30
0.0
 11
309.05
 21
194.2682693335
 31
0.0
  0
LINE
  5
261
330
25A
100
AcDbEntity
  8
0
  6
Continuous
 62
     7
370
    18
100
AcDbLine
 10
310.05
 20
152.7682693335
 30
0.0
 11
310.05
 21
194.2682693335
 31
0.0
  0
MTEXT
  5
262
330
25A
100
AcDbEntity
  8
0
  6
Continuous
 62
     7
370
    18
100
AcDbMText
 10
305.5382630854
 20
155.9443883915
 30
0.0
 40
3.5
 41
0.0
 71
     1
 72
     1
  1
41.50
  7
SLDTEXTSTYLE2
 11
6.123233995736766E-17
 21
1.0
 31
0.0
 73
     1
 44
1.0
  0
ENDBLK
  5
25C
330
25A
100
AcDbEntity
  8
0
100
AcDbBlockEnd
  0
BLOCK
  5
265
330
264
100
AcDbEntity
  8
0
100
AcDbBlockBegin
  2
_D_23
 70
     0
 10
0.0
 20
0.0
 30
0.0
  3
_D_23
  1

  0
INSERT
  5
267
330
264
100
AcDbEntity
  8
0
  6
Continuous
 62
     7
370
    18
100
AcDbBlockReference
  2
_Closed
 10
311.4885337875
 20
145.2682693335
 30
0.0
 41
3.556
 42
3.556
 50
90.0
  0
INSERT
  5
268
330
264
100
AcDbEntity
  8
0
  6
Continuous
 62
     7
370
    18
100
AcDbBlockReference
  2
_Closed
 10
311.4885337875
 20
152.7682693335
 30
0.0
 41
3.556
 42
3.556
 50
270.0
  0
LINE
  5
269
330
264
100
AcDbEntity
  8
0
  6
Continuous
 62
     7
370
    18
100
AcDbLine
 10
337.05
 20
145.2682693335
 30
0.0
 11
310.4885337875
 21
145.2682693335
 31
0.0
  0
LINE
  5
26A
330
264
100
AcDbEntity
  8
0
  6
Continuous
 62
     7
370
    18
100
AcDbLine
 10
337.05
 20
152.7682693335
 30
0.0
 11
310.4885337875
 21
152.7682693335
 31
0.0
  0
LINE
  5
26B
330
264
100
AcDbEntity
  8
0
  6
Continuous
 62
     7
370
    18
100
AcDbLine
 10
311.4885337875
 20
145.2682693335
 30
0.0
 11
311.4885337875
 21
138.9182693335
 31
0.0
  0
LINE
  5
26C
330
264
100
AcDbEntity
  8
0
  6
Continuous
 62
     7
370
    18
100
AcDbLine
 10
311.4885337875
 20
145.2682693335
 30
0.0
 11
311.4885337875
 21
152.7682693335
 31
0.0
  0
LINE
  5
26D
330
264
100
AcDbEntity
  8
0
  6
Continuous
 62
     7
370
    18
100
AcDbLine
 10
311.4885337875
 20
152.7682693335
 30
0.0
 11
311.4885337875
 21
159.1182693335
 31
0.0
  0
MTEXT
  5
26E
330
264
100
AcDbEntity
  8
0
  6
Continuous
 62
     7
370
    18
100
AcDbMText
 10
306.976796873
 20
141.946784126
 30
0.0
 40
3.5
 41
0.0
 71
     1
 72
     1
  1
7.50
  7
SLDTEXTSTYLE2
 11
6.123233995736766E-17
 21
1.0
 31
0.0
 73
     1
 44
1.0
  0
ENDBLK
  5
266
330
264
100
AcDbEntity
  8
0
100
AcDbBlockEnd
  0
BLOCK
  5
271
330
270
100
AcDbEntity
  8
0
100
AcDbBlockBegin
  2
_D_24
 70
     0
 10
0.0
 20
0.0
 30
0.0
  3
_D_24
  1

  0
INSERT
  5
273
330
270
100
AcDbEntity
  8
0
  6
Continuous
 62
     7
370
    18
100
AcDbBlockReference
  2
_Closed
 10
311.4885337875
 20
120.2682693335
 30
0.0
 41
3.556
 42
3.556
 50
270.0
  0
INSERT
  5
274
330
270
100
AcDbEntity
  8
0
  6
Continuous
 62
     7
370
    18
100
AcDbBlockReference
  2
_Closed
 10
311.4885337875
 20
112.7682693335
 30
0.0
 41
3.556
 42
3.556
 50
90.0
  0
LINE
  5
275
330
270
100
AcDbEntity
  8
0
  6
Continuous
 62
     7
370
    18
100
AcDbLine
 10
337.05
 20
120.2682693335
 30
0.0
 11
310.4885337875
 21
120.2682693335
 31
0.0
  0
LINE
  5
276
330
270
100
AcDbEntity
  8
0
  6
Continuous
 62
     7
370
    18
100
AcDbLine
 10
337.05
 20
112.7682693335
 30
0.0
 11
310.4885337875
 21
112.7682693335
 31
0.0
  0
LINE
  5
277
330
270
100
AcDbEntity
  8
0
  6
Continuous
 62
     7
370
    18
100
AcDbLine
 10
311.4885337875
 20
120.2682693335
 30
0.0
 11
311.4885337875
 21
126.6182693335
 31
0.0
  0
LINE
  5
278
330
270
100
AcDbEntity
  8
0
  6
Continuous
 62
     7
370
    18
100
AcDbLine
 10
311.4885337875
 20
120.2682693335
 30
0.0
 11
311.4885337875
 21
112.7682693335
 31
0.0
  0
LINE
  5
279
330
270
100
AcDbEntity
  8
0
  6
Continuous
 62
     7
370
    18
100
AcDbLine
 10
311.4885337875
 20
112.7682693335
 30
0.0
 11
311.4885337875
 21
106.4182693335
 31
0.0
  0
MTEXT
  5
27A
330
270
100
AcDbEntity
  8
0
  6
Continuous
 62
     7
370
    18
100
AcDbMText
 10
306.976796873
 20
113.957396819
 30
0.0
 40
3.5
 41
0.0
 71
     1
 72
     1
  1
7.50
  7
SLDTEXTSTYLE2
 11
-7.044195017643634E-15
 21
1.0
 31
0.0
 73
     1
 44
1.0
  0
ENDBLK
  5
272
330
270
100
AcDbEntity
  8
0
100
AcDbBlockEnd
  0
BLOCK
  5
27D
330
27C
100
AcDbEntity
  8
0
100
AcDbBlockBegin
  2
_D_25
 70
     0
 10
0.0
 20
0.0
 30
0.0
  3
_D_25
  1

  0
INSERT
  5
27F
330
27C
100
AcDbEntity
  8
0
  6
Continuous
 62
     7
370
    18
100
AcDbBlockReference
  2
_Closed
 10
320.4315783871
 20
109.2682693335
 30
0.0
 41
3.556
 42
3.556
 50
270.0
  0
INSERT
  5
280
330
27C
100
AcDbEntity
  8
0
  6
Continuous
 62
     7
370
    18
100
AcDbBlockReference
  2
_Closed
 10
320.4315783871
 20
103.2682693335
 30
0.0
 41
3.556
 42
3.556
 50
90.0
  0
LINE
  5
281
330
27C
100
AcDbEntity
  8
0
  6
Continuous
 62
     7
370
    18
100
AcDbLine
 10
337.05
 20
109.2682693335
 30
0.0
 11
319.4315783871
 21
109.2682693335
 31
0.0
  0
LINE
  5
282
330
27C
100
AcDbEntity
  8
0
  6
Continuous
 62
     7
370
    18
100
AcDbLine
 10
337.05
 20
103.2682693335
 30
0.0
 11
319.4315783871
 21
103.2682693335
 31
0.0
  0
LINE
  5
283
330
27C
100
AcDbEntity
  8
0
  6
Continuous
 62
     7
370
    18
100
AcDbLine
 10
320.4315783871
 20
109.2682693335
 30
0.0
 11
320.4315783871
 21
115.6182693335
 31
0.0
  0
LINE
  5
284
330
27C
100
AcDbEntity
  8
0
  6
Continuous
 62
     7
370
    18
100
AcDbLine
 10
320.4315783871
 20
109.2682693335
 30
0.0
 11
320.4315783871
 21
103.2682693335
 31
0.0
  0
LINE
  5
285
330
27C
100
AcDbEntity
  8
0
  6
Continuous
 62
     7
370
    18
100
AcDbLine
 10
320.4315783871
 20
103.2682693335
 30
0.0
 11
320.4315783871
 21
96.9182693335
 31
0.0
  0
MTEXT
  5
286
330
27C
100
AcDbEntity
  8
0
  6
Continuous
 62
     7
370
    18
100
AcDbMText
 10
315.9198412979
 20
102.3443707857
 30
0.0
 40
3.5
 41
0.0
 71
     1
 72
     1
  1
%%c
  7
SLDTEXTSTYLE2
 11
-7.044195017643634E-15
 21
1.0
 31
0.0
 73
     1
 44
1.0
  0
MTEXT
  5
287
330
27C
100
AcDbEntity
  8
0
  6
Continuous
 62
     7
370
    18
100
AcDbMText
 10
315.8663691212
 20
107.6228081841
 30
0.0
 40
3.5
 41
0.0
 71
     1
 72
     1
  1
6
  7
SLDTEXTSTYLE2
 11
-7.044195017643634E-15
 21
1.0
 31
0.0
 73
     1
 44
1.0
  0
ENDBLK
  5
27E
330
27C
100
AcDbEntity
  8
0
100
AcDbBlockEnd
  0
BLOCK
  5
28A
330
289
100
AcDbEntity
  8
0
100
AcDbBlockBegin
  2
_D_26
 70
     0
 10
0.0
 20
0.0
 30
0.0
  3
_D_26
  1

  0
INSERT
  5
28C
330
289
100
AcDbEntity
  8
0
  6
Continuous
 62
     7
370
    18
100
AcDbBlockReference
  2
_Closed
 10
340.0
 20
88.3650122585
 30
0.0
 41
3.556
 42
3.556
 50
0.0
  0
INSERT
  5
28D
330
289
100
AcDbEntity
  8
0
  6
Continuous
 62
     7
370
    18
100
AcDbBlockReference
  2
_Closed
 10
343.1
 20
88.3650122585
 30
0.0
 41
3.556
 42
3.556
 50
180.0
  0
LINE
  5
28E
330
289
100
AcDbEntity
  8
0
  6
Continuous
 62
     7
370
    18
100
AcDbLine
 10
340.0
 20
99.2682693335
 30
0.0
 11
340.0
 21
87.3650122585
 31
0.0
  0
LINE
  5
28F
330
289
100
AcDbEntity
  8
0
  6
Continuous
 62
     7
370
    18
100
AcDbLine
 10
343.1
 20
99.2682693335
 30
0.0
 11
343.1
 21
87.3650122585
 31
0.0
  0
LINE
  5
290
330
289
100
AcDbEntity
  8
0
  6
Continuous
 62
     7
370
    18
100
AcDbLine
 10
340.0
 20
88.3650122585
 30
0.0
 11
333.65
 21
88.3650122585
 31
0.0
  0
LINE
  5
291
330
289
100
AcDbEntity
  8
0
  6
Continuous
 62
     7
370
    18
100
AcDbLine
 10
340.0
 20
88.3650122585
 30
0.0
 11
343.1
 21
88.3650122585
 31
0.0
  0
LINE
  5
292
330
289
100
AcDbEntity
  8
0
  6
Continuous
 62
     7
370
    18
100
AcDbLine
 10
343.1
 20
88.3650122585
 30
0.0
 11
349.45
 21
88.3650122585
 31
0.0
  0
MTEXT
  5
293
330
289
100
AcDbEntity
  8
0
  6
Continuous
 62
     7
370
    18
100
AcDbMText
 10
333.9203511536
 20
92.8767493477
 30
0.0
 40
3.5
 41
0.0
 71
     1
 72
     1
  1
%%c
  7
SLDTEXTSTYLE2
 73
     1
 44
1.0
  0
MTEXT
  5
294
330
289
100
AcDbEntity
  8
0
  6
Continuous
 62
     7
370
    18
100
AcDbMText
 10
339.198788552
 20
92.9302215244
 30
0.0
 40
3.5
 41
0.0
 71
     1
 72
     1
  1
3.10
  7
SLDTEXTSTYLE2
 73
     1
 44
1.0
  0
ENDBLK
  5
28B
330
289
100
AcDbEntity
  8
0
100
AcDbBlockEnd
  0
BLOCK
  5
297
330
296
100
AcDbEntity
  8
0
100
AcDbBlockBegin
  2
_D_27
 70
     0
 10
0.0
 20
0.0
 30
0.0
  3
_D_27
  1

  0
INSERT
  5
299
330
296
100
AcDbEntity
  8
0
  6
Continuous
 62
     7
370
    18
100
AcDbBlockReference
  2
_Closed
 10
365.8961934393
 20
100.2682693335
 30
0.0
 41
3.556
 42
3.556
 50
90.0
  0
INSERT
  5
29A
330
296
100
AcDbEntity
  8
0
  6
Continuous
 62
     7
370
    18
100
AcDbBlockReference
  2
_Closed
 10
365.8961934393
 20
103.2682693335
 30
0.0
 41
3.556
 42
3.556
 50
270.0
  0
LINE
  5
29B
330
296
100
AcDbEntity
  8
0
  6
Continuous
 62
     7
370
    18
100
AcDbLine
 10
346.05
 20
100.2682693335
 30
0.0
 11
366.8961934393
 21
100.2682693335
 31
0.0
  0
LINE
  5
29C
330
296
100
AcDbEntity
  8
0
  6
Continuous
 62
     7
370
    18
100
AcDbLine
 10
346.05
 20
103.2682693335
 30
0.0
 11
366.8961934393
 21
103.2682693335
 31
0.0
  0
LINE
  5
29D
330
296
100
AcDbEntity
  8
0
  6
Continuous
 62
     7
370
    18
100
AcDbLine
 10
365.8961934393
 20
100.2682693335
 30
0.0
 11
365.8961934393
 21
93.9182693335
 31
0.0
  0
LINE
  5
29E
330
296
100
AcDbEntity
  8
0
  6
Continuous
 62
     7
370
    18
100
AcDbLine
 10
365.8961934393
 20
100.2682693335
 30
0.0
 11
365.8961934393
 21
103.2682693335
 31
0.0
  0
LINE
  5
29F
330
296
100
AcDbEntity
  8
0
  6
Continuous
 62
     7
370
    18
100
AcDbLine
 10
365.8961934393
 20
103.2682693335
 30
0.0
 11
365.8961934393
 21
109.6182693335
 31
0.0
  0
MTEXT
  5
2A0
330
296
100
AcDbEntity
  8
0
  6
Continuous
 62
     7
370
    18
100
AcDbMText
 10
361.3844565247
 20
101.1359054884
 30
0.0
 40
3.5
 41
0.0
 71
     1
 72
     1
  1
3
  7
SLDTEXTSTYLE2
 11
6.123233995736766E-17
 21
1.0
 31
0.0
 73
     1
 44
1.0
  0
ENDBLK
  5
298
330
296
100
AcDbEntity
  8
0
100
AcDbBlockEnd
  0
ENDSEC
  0
SECTION
  2
ENTITIES
  0
LINE
  5
74
330
1F
100
AcDbEntity
  8
0
  6
Continuous
 62
     7
370
    50
100
AcDbLine
 10
404.0
 20
14.25
 30
0.0
 11
584.0
 21
14.25
 31
0.0
  0
LINE
  5
75
330
1F
100
AcDbEntity
  8
0
  6
Continuous
 62
     7
370
    50
100
AcDbLine
 10
584.0
 20
48.25
 30
0.0
 11
404.0
 21
48.25
 31
0.0
  0
LINE
  5
76
330
1F
100
AcDbEntity
  8
0
  6
Continuous
 62
     7
370
    50
100
AcDbLine
 10
404.0
 20
65.25
 30
0.0
 11
584.0
 21
65.25
 31
0.0
  0
LINE
  5
77
330
1F
100
AcDbEntity
  8
0
  6
Continuous
 62
     7
370
    50
100
AcDbLine
 10
430.9909524338
 20
48.25
 30
0.0
 11
430.9909524338
 21
10.0
 31
0.0
  0
LINE
  5
78
330
1F
100
AcDbEntity
  8
0
  6
Continuous
 62
     7
370
    50
100
AcDbLine
 10
502.8
 20
31.25
 30
0.0
 11
404.0
 21
31.25
 31
0.0
  0
LINE
  5
79
330
1F
100
AcDbEntity
  8
0
  6
Continuous
 62
     7
370
    50
100
AcDbLine
 10
502.8
 20
35.5
 30
0.0
 11
404.0
 21
35.5
 31
0.0
  0
LINE
  5
7A
330
1F
100
AcDbEntity
  8
0
  6
Continuous
 62
     7
370
    50
100
AcDbLine
 10
502.8
 20
39.75
 30
0.0
 11
404.0
 21
39.75
 31
0.0
  0
LINE
  5
7B
330
1F
100
AcDbEntity
  8
0
  6
Continuous
 62
     7
370
    50
100
AcDbLine
 10
502.8
 20
44.0
 30
0.0
 11
404.0
 21
44.0
 31
0.0
  0
LINE
  5
7C
330
1F
100
AcDbEntity
  8
0
  6
Continuous
 62
     7
370
    50
100
AcDbLine
 10
458.6
 20
10.0
 30
0.0
 11
458.6
 21
48.25
 31
0.0
  0
LINE
  5
7D
330
1F
100
AcDbEntity
  8
0
  6
Continuous
 62
     7
370
    50
100
AcDbLine
 10
404.0
 20
65.25
 30
0.0
 11
404.0
 21
10.0
 31
0.0
  0
LINE
  5
7E
330
1F
100
AcDbEntity
  8
0
  6
Continuous
 62
     7
370
    50
100
AcDbLine
 10
411.8
 20
48.25
 30
0.0
 11
411.8
 21
10.0
 31
0.0
  0
LINE
  5
7F
330
1F
100
AcDbEntity
  8
0
  6
Continuous
 62
     7
370
    50
100
AcDbLine
 10
437.8
 20
48.25
 30
0.0
 11
437.8
 21
65.25
 31
0.0
  0
LINE
  5
80
330
1F
100
AcDbEntity
  8
0
  6
Continuous
 62
     7
370
    50
100
AcDbLine
 10
448.3989261635
 20
48.25
 30
0.0
 11
448.3989261635
 21
10.0
 31
0.0
  0
LINE
  5
81
330
1F
100
AcDbEntity
  8
0
  6
Continuous
 62
     7
370
    50
100
AcDbLine
 10
469.0
 20
31.25
 30
0.0
 11
469.0
 21
48.25
 31
0.0
  0
LINE
  5
82
330
1F
100
AcDbEntity
  8
0
  6
Continuous
 62
     7
370
    50
100
AcDbLine
 10
458.6
 20
18.5
 30
0.0
 11
404.0
 21
18.5
 31
0.0
  0
LINE
  5
83
330
1F
100
AcDbEntity
  8
0
  6
Continuous
 62
     7
370
    50
100
AcDbLine
 10
484.6
 20
65.25
 30
0.0
 11
484.6
 21
27.0
 31
0.0
  0
LINE
  5
84
330
1F
100
AcDbEntity
  8
0
  6
Continuous
 62
     7
370
    50
100
AcDbLine
 10
458.6
 20
22.749928
 30
0.0
 11
404.0
 21
22.749928
 31
0.0
  0
LINE
  5
85
330
1F
100
AcDbEntity
  8
0
  6
Continuous
 62
     7
370
    50
100
AcDbLine
 10
458.6
 20
27.0
 30
0.0
 11
404.0
 21
27.0
 31
0.0
  0
LINE
  5
86
330
1F
100
AcDbEntity
  8
0
  6
Continuous
 62
     7
370
    50
100
AcDbLine
 10
458.6
 20
27.0
 30
0.0
 11
584.0
 21
27.0
 31
0.0
  0
LINE
  5
87
330
1F
100
AcDbEntity
  8
0
  6
Continuous
 62
     7
370
    50
100
AcDbLine
 10
502.8
 20
65.25
 30
0.0
 11
502.8
 21
10.0
 31
0.0
  0
LINE
  5
88
330
1F
100
AcDbEntity
  8
0
  6
Continuous
 62
     7
370
    50
100
AcDbLine
 10
547.0
 20
10.0
 30
0.0
 11
547.0
 21
14.25
 31
0.0
  0
LINE
  5
89
330
1F
100
AcDbEntity
  8
0
  6
Continuous
 62
     7
370
    50
100
AcDbLine
 10
554.8
 20
58.875
 30
0.0
 11
554.8
 21
65.25
 31
0.0
  0
LINE
  5
8A
330
1F
100
AcDbEntity
  8
0
  6
Continuous
 62
     7
370
    50
100
AcDbLine
 10
571.0
 20
14.25
 30
0.0
 11
571.0
 21
27.0
 31
0.0
  0
LINE
  5
8B
330
1F
100
AcDbEntity
  8
0
  6
Continuous
 62
     7
370
    50
100
AcDbLine
 10
584.0
 20
58.875
 30
0.0
 11
502.8
 21
58.875
 31
0.0
  0
LINE
  5
8C
330
1F
100
AcDbEntity
  8
0
  6
Continuous
 62
     7
370
    50
100
AcDbLine
 10
584.0
 20
18.5
 30
0.0
 11
571.0
 21
18.5
 31
0.0
  0
LINE
  5
8D
330
1F
100
AcDbEntity
  8
0
  6
Continuous
 62
     7
370
    35
100
AcDbLine
 10
20.0
 20
60.0
 30
0.0
 11
15.0
 21
60.0
 31
0.0
  0
LINE
  5
8E
330
1F
100
AcDbEntity
  8
0
  6
Continuous
 62
     7
370
    35
100
AcDbLine
 10
584.0
 20
60.0
 30
0.0
 11
589.0
 21
60.0
 31
0.0
  0
LINE
  5
8F
330
1F
100
AcDbEntity
  8
0
  6
Continuous
 62
     7
370
    35
100
AcDbLine
 10
20.0
 20
110.0
 30
0.0
 11
15.0
 21
110.0
 31
0.0
  0
LINE
  5
90
330
1F
100
AcDbEntity
  8
0
  6
Continuous
 62
     7
370
    35
100
AcDbLine
 10
584.0
 20
110.0
 30
0.0
 11
589.0
 21
110.0
 31
0.0
  0
LINE
  5
91
330
1F
100
AcDbEntity
  8
0
  6
Continuous
 62
     7
370
    35
100
AcDbLine
 10
20.0
 20
160.0
 30
0.0
 11
15.0
 21
160.0
 31
0.0
  0
LINE
  5
92
330
1F
100
AcDbEntity
  8
0
  6
Continuous
 62
     7
370
    35
100
AcDbLine
 10
584.0
 20
160.0
 30
0.0
 11
589.0
 21
160.0
 31
0.0
  0
LINE
  5
93
330
1F
100
AcDbEntity
  8
0
  6
Continuous
 62
     7
370
    35
100
AcDbLine
 10
20.0
 20
210.0
 30
0.0
 11
15.0
 21
210.0
 31
0.0
  0
LINE
  5
94
330
1F
100
AcDbEntity
  8
0
  6
Continuous
 62
     7
370
    35
100
AcDbLine
 10
584.0
 20
210.0
 30
0.0
 11
589.0
 21
210.0
 31
0.0
  0
LINE
  5
95
330
1F
100
AcDbEntity
  8
0
  6
Continuous
 62
     7
370
    35
100
AcDbLine
 10
20.0
 20
260.0
 30
0.0
 11
15.0
 21
260.0
 31
0.0
  0
LINE
  5
96
330
1F
100
AcDbEntity
  8
0
  6
Continuous
 62
     7
370
    35
100
AcDbLine
 10
584.0
 20
260.0
 30
0.0
 11
589.0
 21
260.0
 31
0.0
  0
LINE
  5
97
330
1F
100
AcDbEntity
  8
0
  6
Continuous
 62
     7
370
    35
100
AcDbLine
 10
20.0
 20
310.0
 30
0.0
 11
15.0
 21
310.0
 31
0.0
  0
LINE
  5
98
330
1F
100
AcDbEntity
  8
0
  6
Continuous
 62
     7
370
    35
100
AcDbLine
 10
584.0
 20
310.0
 30
0.0
 11
589.0
 21
310.0
 31
0.0
  0
LINE
  5
99
330
1F
100
AcDbEntity
  8
0
  6
Continuous
 62
     7
370
    35
100
AcDbLine
 10
20.0
 20
360.0
 30
0.0
 11
15.0
 21
360.0
 31
0.0
  0
LINE
  5
9A
330
1F
100
AcDbEntity
  8
0
  6
Continuous
 62
     7
370
    35
100
AcDbLine
 10
584.0
 20
360.0
 30
0.0
 11
589.0
 21
360.0
 31
0.0
  0
LINE
  5
9B
330
1F
100
AcDbEntity
  8
0
  6
Continuous
 62
     7
370
    35
100
AcDbLine
 10
52.0
 20
410.0
 30
0.0
 11
52.0
 21
415.0
 31
0.0
  0
LINE
  5
9C
330
1F
100
AcDbEntity
  8
0
  6
Continuous
 62
     7
370
    35
100
AcDbLine
 10
52.0
 20
10.0
 30
0.0
 11
52.0
 21
5.0
 31
0.0
  0
LINE
  5
9D
330
1F
100
AcDbEntity
  8
0
  6
Continuous
 62
     7
370
    35
100
AcDbLine
 10
102.0
 20
410.0
 30
0.0
 11
102.0
 21
415.0
 31
0.0
  0
LINE
  5
9E
330
1F
100
AcDbEntity
  8
0
  6
Continuous
 62
     7
370
    35
100
AcDbLine
 10
102.0
 20
10.0
 30
0.0
 11
102.0
 21
5.0
 31
0.0
  0
LINE
  5
9F
330
1F
100
AcDbEntity
  8
0
  6
Continuous
 62
     7
370
    35
100
AcDbLine
 10
152.0
 20
410.0
 30
0.0
 11
152.0
 21
415.0
 31
0.0
  0
LINE
  5
A0
330
1F
100
AcDbEntity
  8
0
  6
Continuous
 62
     7
370
    35
100
AcDbLine
 10
152.0
 20
10.0
 30
0.0
 11
152.0
 21
5.0
 31
0.0
  0
LINE
  5
A1
330
1F
100
AcDbEntity
  8
0
  6
Continuous
 62
     7
370
    35
100
AcDbLine
 10
202.0
 20
410.0
 30
0.0
 11
202.0
 21
415.0
 31
0.0
  0
LINE
  5
A2
330
1F
100
AcDbEntity
  8
0
  6
Continuous
 62
     7
370
    35
100
AcDbLine
 10
202.0
 20
10.0
 30
0.0
 11
202.0
 21
5.0
 31
0.0
  0
LINE
  5
A3
330
1F
100
AcDbEntity
  8
0
  6
Continuous
 62
     7
370
    35
100
AcDbLine
 10
252.0
 20
410.0
 30
0.0
 11
252.0
 21
415.0
 31
0.0
  0
LINE
  5
A4
330
1F
100
AcDbEntity
  8
0
  6
Continuous
 62
     7
370
    35
100
AcDbLine
 10
252.0
 20
10.0
 30
0.0
 11
252.0
 21
5.0
 31
0.0
  0
LINE
  5
A5
330
1F
100
AcDbEntity
  8
0
  6
Continuous
 62
     7
370
    35
100
AcDbLine
 10
302.0
 20
410.0
 30
0.0
 11
302.0
 21
415.0
 31
0.0
  0
LINE
  5
A6
330
1F
100
AcDbEntity
  8
0
  6
Continuous
 62
     7
370
    35
100
AcDbLine
 10
302.0
 20
10.0
 30
0.0
 11
302.0
 21
5.0
 31
0.0
  0
LINE
  5
A7
330
1F
100
AcDbEntity
  8
0
  6
Continuous
 62
     7
370
    35
100
AcDbLine
 10
352.0
 20
410.0
 30
0.0
 11
352.0
 21
415.0
 31
0.0
  0
LINE
  5
A8
330
1F
100
AcDbEntity
  8
0
  6
Continuous
 62
     7
370
    35
100
AcDbLine
 10
352.0
 20
10.0
 30
0.0
 11
352.0
 21
5.0
 31
0.0
  0
LINE
  5
A9
330
1F
100
AcDbEntity
  8
0
  6
Continuous
 62
     7
370
    35
100
AcDbLine
 10
402.0
 20
410.0
 30
0.0
 11
402.0
 21
415.0
 31
0.0
  0
LINE
  5
AA
330
1F
100
AcDbEntity
  8
0
  6
Continuous
 62
     7
370
    35
100
AcDbLine
 10
402.0
 20
10.0
 30
0.0
 11
402.0
 21
5.0
 31
0.0
  0
LINE
  5
AB
330
1F
100
AcDbEntity
  8
0
  6
Continuous
 62
     7
370
    35
100
AcDbLine
 10
452.0
 20
410.0
 30
0.0
 11
452.0
 21
415.0
 31
0.0
  0
LINE
  5
AC
330
1F
100
AcDbEntity
  8
0
  6
Continuous
 62
     7
370
    35
100
AcDbLine
 10
452.0
 20
10.0
 30
0.0
 11
452.0
 21
5.0
 31
0.0
  0
LINE
  5
AD
330
1F
100
AcDbEntity
  8
0
  6
Continuous
 62
     7
370
    35
100
AcDbLine
 10
502.0
 20
410.0
 30
0.0
 11
502.0
 21
415.0
 31
0.0
  0
LINE
  5
AE
330
1F
100
AcDbEntity
  8
0
  6
Continuous
 62
     7
370
    35
100
AcDbLine
 10
502.0
 20
10.0
 30
0.0
 11
502.0
 21
5.0
 31
0.0
  0
LINE
  5
AF
330
1F
100
AcDbEntity
  8
0
  6
Continuous
 62
     7
370
    35
100
AcDbLine
 10
552.0
 20
410.0
 30
0.0
 11
552.0
 21
415.0
 31
0.0
  0
LINE
  5
B0
330
1F
100
AcDbEntity
  8
0
  6
Continuous
 62
     7
370
    35
100
AcDbLine
 10
552.0
 20
10.0
 30
0.0
 11
552.0
 21
5.0
 31
0.0
  0
LINE
  5
B1
330
1F
100
AcDbEntity
  8
0
  6
Continuous
 62
     7
370
    70
100
AcDbLine
 10
20.0
 20
10.0
 30
0.0
 11
20.0
 21
410.0
 31
0.0
  0
LINE
  5
B2
330
1F
100
AcDbEntity
  8
0
  6
Continuous
 62
     7
370
    70
100
AcDbLine
 10
20.0
 20
410.0
 30
0.0
 11
584.0
 21
410.0
 31
0.0
  0
LINE
  5
B3
330
1F
100
AcDbEntity
  8
0
  6
Continuous
 62
     7
370
    70
100
AcDbLine
 10
584.0
 20
410.0
 30
0.0
 11
584.0
 21
10.0
 31
0.0
  0
LINE
  5
B4
330
1F
100
AcDbEntity
  8
0
  6
Continuous
 62
     7
370
    70
100
AcDbLine
 10
584.0
 20
10.0
 30
0.0
 11
20.0
 21
10.0
 31
0.0
  0
LINE
  5
B5
330
1F
100
AcDbEntity
  8
0
  6
Continuous
 62
     7
370
    70
100
AcDbLine
 10
15.0
 20
5.0
 30
0.0
 11
15.0
 21
415.0
 31
0.0
  0
LINE
  5
B6
330
1F
100
AcDbEntity
  8
0
  6
Continuous
 62
     7
370
    70
100
AcDbLine
 10
15.0
 20
415.0
 30
0.0
 11
589.0
 21
415.0
 31
0.0
  0
LINE
  5
B7
330
1F
100
AcDbEntity
  8
0
  6
Continuous
 62
     7
370
    70
100
AcDbLine
 10
589.0
 20
415.0
 30
0.0
 11
589.0
 21
5.0
 31
0.0
  0
LINE
  5
B8
330
1F
100
AcDbEntity
  8
0
  6
Continuous
 62
     7
370
    70
100
AcDbLine
 10
589.0
 20
5.0
 30
0.0
 11
15.0
 21
5.0
 31
0.0
  0
LINE
  5
B9
330
1F
100
AcDbEntity
  8
0
  6
Continuous
 62
     7
370
    35
100
AcDbLine
 10
14.999
 20
210.0
 30
0.0
 11
25.001
 21
210.0
 31
0.0
  0
LINE
  5
BA
330
1F
100
AcDbEntity
  8
0
  6
Continuous
 62
     7
370
    35
100
AcDbLine
 10
302.0
 20
415.001
 30
0.0
 11
302.0
 21
404.999
 31
0.0
  0
LINE
  5
BB
330
1F
100
AcDbEntity
  8
0
  6
Continuous
 62
     7
370
    35
100
AcDbLine
 10
589.001
 20
210.0
 30
0.0
 11
578.999
 21
210.0
 31
0.0
  0
LINE
  5
BC
330
1F
100
AcDbEntity
  8
0
  6
Continuous
 62
     7
370
    35
100
AcDbLine
 10
302.0
 20
4.999
 30
0.0
 11
302.0
 21
15.001
 31
0.0
  0
MTEXT
  5
BE
330
1F
100
AcDbEntity
  8
0
  6
Continuous
 62
     7
370
     0
100
AcDbMText
 10
404.6846681267
 20
42.4297148859
 30
0.0
 40
1.5
 41
0.0
 71
     1
 72
     1
  1
»æ\M+190A7
  7
SLDTEXTSTYLE0
 73
     1
 44
1.0
  0
MTEXT
  5
BF
330
1F
100
AcDbEntity
  8
0
  6
Continuous
 62
     7
370
     0
100
AcDbMText
 10
404.6235833201
 20
38.15440716
 30
0.0
 40
1.5
 41
0.0
 71
     1
 72
     1
  1
¼ì²é
  7
SLDTEXTSTYLE0
 73
     1
 44
1.0
  0
MTEXT
  5
C0
330
1F
100
AcDbEntity
  8
0
  6
Continuous
 62
     7
370
     0
100
AcDbMText
 10
404.6216303366
 20
34.176830153
 30
0.0
 40
1.5
 41
0.0
 71
     1
 72
     1
  1
\M+194E1\M+18F79
  7
SLDTEXTSTYLE0
 73
     1
 44
1.0
  0
MTEXT
  5
C1
330
1F
100
AcDbEntity
  8
0
  6
Continuous
 62
     7
370
     0
100
AcDbMText
 10
404.6821940683
 20
29.7337046506
 30
0.0
 40
1.5
 41
0.0
 71
     1
 72
     1
  1
\M+190A7\M+191A2
  7
SLDTEXTSTYLE0
 73
     1
 44
1.0
  0
MTEXT
  5
C2
330
1F
100
AcDbEntity
  8
0
  6
Continuous
 62
     7
370
     0
100
AcDbMText
 10
404.6768554944
 20
25.3496492073
 30
0.0
 40
1.5
 41
0.0
 71
     1
 72
     1
  1
Ñé¼ì
  7
SLDTEXTSTYLE0
 73
     1
 44
1.0
  0
INSERT
  5
CC
330
1F
100
AcDbEntity
  8
0
  6
Continuous
 62
     7
370
     0
100
AcDbBlockReference
  2
SW_NOTE_0
 10
404.5936687456
 20
61.9873698743
 30
0.0
  0
MTEXT
  5
CD
330
1F
100
AcDbEntity
  8
0
  6
Continuous
 62
     7
370
     0
100
AcDbMText
 10
438.3712921668
 20
63.9192719951
 30
0.0
 40
1.5
 41
0.0
 71
     1
 72
     1
  1
\M+1955C\M+196CA\M+19165²Ú\M+19378:
  7
SLDTEXTSTYLE0
 73
     1
 44
1.0
  0
INSERT
  5
D3
330
1F
100
AcDbEntity
  8
0
  6
Continuous
 62
     7
370
     0
100
AcDbBlockReference
  2
SW_NOTE_1
 10
485.3092156863
 20
62.069489643
 30
0.0
  0
MTEXT
  5
D4
330
1F
100
AcDbEntity
  8
0
  6
Continuous
 62
     7
370
     0
100
AcDbMText
 10
418.3222392177
 20
46.5014826335
 30
0.0
 40
1.5
 41
0.0
 71
     1
 72
     1
  1
\M+196BC\M+18FCC
  7
SLDTEXTSTYLE0
 73
     1
 44
1.0
  0
MTEXT
  5
D5
330
1F
100
AcDbEntity
  8
0
  6
Continuous
 62
     7
370
     0
100
AcDbMText
 10
434.0335875632
 20
46.5617563795
 30
0.0
 40
1.5
 41
0.0
 71
     1
 72
     1
  1
Ç©\M+196BC
  7
SLDTEXTSTYLE0
 73
     1
 44
1.0
  0
MTEXT
  5
D6
330
1F
100
AcDbEntity
  8
0
  6
Continuous
 62
     7
370
     0
100
AcDbMText
 10
451.2147019657
 20
46.5761792212
 30
0.0
 40
1.5
 41
0.0
 71
     1
 72
     1
  1
\M+193FA\M+18AFA
  7
SLDTEXTSTYLE0
 73
     1
 44
1.0
  0
MTEXT
  5
D7
330
1F
100
AcDbEntity
  8
0
  6
Continuous
 62
     7
370
     0
100
AcDbMText
 10
459.6458623088
 20
25.9860562892
 30
0.0
 40
1.5
 41
0.0
 71
     1
 72
     1
  1
\M+18DDE\M+197BF:
  7
SLDTEXTSTYLE0
 73
     1
 44
1.0
  0
MTEXT
  5
D8
330
1F
100
AcDbEntity
  8
0
  6
Continuous
 62
     7
370
     0
100
AcDbMText
 10
516.6146405229
 20
62.5329935751
 30
0.0
 40
1.5
 41
0.0
 71
     1
 72
     1
  1
\M+19573µ÷\M+190AE\M+18D48\M+192F6Í¼\M+194E4\M+197E1
  7
SLDTEXTSTYLE0
 73
     1
 44
1.0
  0
MTEXT
  5
D9
330
1F
100
AcDbEntity
  8
0
  6
Continuous
 62
     7
370
     0
100
AcDbMText
 10
557.3275816993
 20
62.3349086805
 30
0.0
 40
1.5
 41
0.0
 71
     1
 72
     1
  1
\M+18F43¶©
  7
SLDTEXTSTYLE0
 73
     1
 44
1.0
  0
MTEXT
  5
DA
330
1F
100
AcDbEntity
  8
0
  6
Continuous
 62
     7
370
     0
100
AcDbMText
 10
503.9561869366
 20
46.5761792212
 30
0.0
 40
1.5
 41
0.0
 71
     1
 72
     1
  1
±êÌâ:
  7
SLDTEXTSTYLE0
 73
     1
 44
1.0
  0
MTEXT
  5
DB
330
1F
100
AcDbEntity
  8
0
  6
Continuous
 62
     7
370
     0
100
AcDbMText
 10
503.6286535299
 20
25.9860562892
 30
0.0
 40
1.5
 41
0.0
 71
     1
 72
     1
  1
\M+18D48\M+192F6Í¼\M+18D86
  7
SLDTEXTSTYLE0
 73
     1
 44
1.0
  0
MTEXT
  5
DC
330
1F
100
AcDbEntity
  8
0
  6
Continuous
 62
     7
370
     0
100
AcDbMText
 10
504.0739661175
 20
12.9000872745
 30
0.0
 40
1.5
 41
0.0
 71
     1
 72
     1
  1
\M+194E4\M+197E1:1:1
  7
SLDTEXTSTYLE0
 73
     1
 44
1.0
  0
MTEXT
  5
DE
330
1F
100
AcDbEntity
  8
0
  6
Continuous
 62
     7
370
     0
100
AcDbMText
 10
548.4782944278
 20
12.9000872745
 30
0.0
 40
1.5
 41
0.0
 71
     1
 72
     1
  1
Í¼Ö½ 1 (\M+18BA41)
  7
SLDTEXTSTYLE1
 73
     1
 44
1.0
  0
MTEXT
  5
E0
330
1F
100
AcDbEntity
  8
0
  6
Continuous
 62
     7
370
     0
100
AcDbMText
 10
574.8711564346
 20
24.406388569
 30
0.0
 40
2.9104166667
 41
0.0
 71
     1
 72
     1
  1
A2
  7
SLDTEXTSTYLE2
 73
     1
 44
1.0
  0
MTEXT
  5
E1
330
1F
100
AcDbEntity
  8
0
  6
Continuous
 62
     7
370
     0
100
AcDbMText
 10
481.015556043
 20
21.4855658078
 30
0.0
 40
2.38125
 41
0.0
 71
     2
 72
     1
  1
6061 \M+18D87\M+18BE0
  7
SLDTEXTSTYLE0
 73
     1
 44
1.0
  0
MTEXT
  5
E2
330
1F
100
AcDbEntity
  8
0
  6
Continuous
 62
     7
370
     0
100
AcDbMText
 10
459.6178111281
 20
12.9493119036
 30
0.0
 40
1.4986
 41
0.0
 71
     1
 72
     1
  1
\M+18F64\M+197CA: 0.044
  7
SLDTEXTSTYLE0
 73
     1
 44
1.0
  0
MTEXT
  5
E3
330
1F
100
AcDbEntity
  8
0
  6
Continuous
 62
     7
370
     0
100
AcDbMText
 10
538.7881754383
 20
23.6069109673
 30
0.0
 40
6.35
 41
0.0
 71
     2
 72
     1
  1
pitchÖá\M+18E78³Å
  7
SLDTEXTSTYLE0
 73
     1
 44
1.0
  0
MTEXT
  5
E4
330
1F
100
AcDbEntity
  8
0
  6
Continuous
 62
     7
370
     0
100
AcDbMText
 10
17.3396881428
 20
37.56015409
 30
0.0
 40
3.96875
 41
0.0
 71
     2
 72
     1
  1
A
  7
SLDTEXTSTYLE2
 73
     1
 44
1.0
  0
MTEXT
  5
E5
330
1F
100
AcDbEntity
  8
0
  6
Continuous
 62
     7
370
     0
100
AcDbMText
 10
586.3396881428
 20
37.56015409
 30
0.0
 40
3.96875
 41
0.0
 71
     2
 72
     1
  1
A
  7
SLDTEXTSTYLE2
 73
     1
 44
1.0
  0
MTEXT
  5
E6
330
1F
100
AcDbEntity
  8
0
  6
Continuous
 62
     7
370
     0
100
AcDbMText
 10
17.4706018241
 20
87.56015409
 30
0.0
 40
3.96875
 41
0.0
 71
     2
 72
     1
  1
B
  7
SLDTEXTSTYLE2
 73
     1
 44
1.0
  0
MTEXT
  5
E7
330
1F
100
AcDbEntity
  8
0
  6
Continuous
 62
     7
370
     0
100
AcDbMText
 10
586.4706018241
 20
87.56015409
 30
0.0
 40
3.96875
 41
0.0
 71
     2
 72
     1
  1
B
  7
SLDTEXTSTYLE2
 73
     1
 44
1.0
  0
MTEXT
  5
E8
330
1F
100
AcDbEntity
  8
0
  6
Continuous
 62
     7
370
     0
100
AcDbMText
 10
17.458658902
 20
137.56015409
 30
0.0
 40
3.96875
 41
0.0
 71
     2
 72
     1
  1
C
  7
SLDTEXTSTYLE2
 73
     1
 44
1.0
  0
MTEXT
  5
E9
330
1F
100
AcDbEntity
  8
0
  6
Continuous
 62
     7
370
     0
100
AcDbMText
 10
586.458658902
 20
137.56015409
 30
0.0
 40
3.96875
 41
0.0
 71
     2
 72
     1
  1
C
  7
SLDTEXTSTYLE2
 73
     1
 44
1.0
  0
MTEXT
  5
EA
330
1F
100
AcDbEntity
  8
0
  6
Continuous
 62
     7
370
     0
100
AcDbMText
 10
17.4526872821
 20
187.56015409
 30
0.0
 40
3.96875
 41
0.0
 71
     2
 72
     1
  1
D
  7
SLDTEXTSTYLE2
 73
     1
 44
1.0
  0
MTEXT
  5
EB
330
1F
100
AcDbEntity
  8
0
  6
Continuous
 62
     7
370
     0
100
AcDbMText
 10
586.4526872821
 20
187.56015409
 30
0.0
 40
3.96875
 41
0.0
 71
     2
 72
     1
  1
D
  7
SLDTEXTSTYLE2
 73
     1
 44
1.0
  0
MTEXT
  5
EC
330
1F
100
AcDbEntity
  8
0
  6
Continuous
 62
     7
370
     0
100
AcDbMText
 10
17.5078089051
 20
237.56015409
 30
0.0
 40
3.96875
 41
0.0
 71
     2
 72
     1
  1
E
  7
SLDTEXTSTYLE2
 73
     1
 44
1.0
  0
MTEXT
  5
ED
330
1F
100
AcDbEntity
  8
0
  6
Continuous
 62
     7
370
     0
100
AcDbMText
 10
586.5078089051
 20
237.56015409
 30
0.0
 40
3.96875
 41
0.0
 71
     2
 72
     1
  1
E
  7
SLDTEXTSTYLE2
 73
     1
 44
1.0
  0
MTEXT
  5
EE
330
1F
100
AcDbEntity
  8
0
  6
Continuous
 62
     7
370
     0
100
AcDbMText
 10
17.4577402091
 20
287.56015409
 30
0.0
 40
3.96875
 41
0.0
 71
     2
 72
     1
  1
F
  7
SLDTEXTSTYLE2
 73
     1
 44
1.0
  0
MTEXT
  5
EF
330
1F
100
AcDbEntity
  8
0
  6
Continuous
 62
     7
370
     0
100
AcDbMText
 10
586.4577402091
 20
287.56015409
 30
0.0
 40
3.96875
 41
0.0
 71
     2
 72
     1
  1
F
  7
SLDTEXTSTYLE2
 73
     1
 44
1.0
  0
MTEXT
  5
F0
330
1F
100
AcDbEntity
  8
0
  6
Continuous
 62
     7
370
     0
100
AcDbMText
 10
17.4866788853
 20
337.56015409
 30
0.0
 40
3.96875
 41
0.0
 71
     2
 72
     1
  1
G
  7
SLDTEXTSTYLE2
 73
     1
 44
1.0
  0
MTEXT
  5
F1
330
1F
100
AcDbEntity
  8
0
  6
Continuous
 62
     7
370
     0
100
AcDbMText
 10
586.4866788853
 20
337.56015409
 30
0.0
 40
3.96875
 41
0.0
 71
     2
 72
     1
  1
G
  7
SLDTEXTSTYLE2
 73
     1
 44
1.0
  0
MTEXT
  5
F2
330
1F
100
AcDbEntity
  8
0
  6
Continuous
 62
     7
370
     0
100
AcDbMText
 10
17.4903537836
 20
387.56015409
 30
0.0
 40
3.96875
 41
0.0
 71
     2
 72
     1
  1
H
  7
SLDTEXTSTYLE2
 73
     1
 44
1.0
  0
MTEXT
  5
F3
330
1F
100
AcDbEntity
  8
0
  6
Continuous
 62
     7
370
     0
100
AcDbMText
 10
586.4903537836
 20
387.56015409
 30
0.0
 40
3.96875
 41
0.0
 71
     2
 72
     1
  1
H
  7
SLDTEXTSTYLE2
 73
     1
 44
1.0
  0
MTEXT
  5
F4
330
1F
100
AcDbEntity
  8
0
  6
Continuous
 62
     7
370
     0
100
AcDbMText
 10
35.9200738929
 20
10.06015409
 30
0.0
 40
3.96875
 41
0.0
 71
     2
 72
     1
  1
12
  7
SLDTEXTSTYLE2
 73
     1
 44
1.0
  0
MTEXT
  5
F5
330
1F
100
AcDbEntity
  8
0
  6
Continuous
 62
     7
370
     0
100
AcDbMText
 10
35.9200738929
 20
415.06015409
 30
0.0
 40
3.96875
 41
0.0
 71
     2
 72
     1
  1
12
  7
SLDTEXTSTYLE2
 73
     1
 44
1.0
  0
MTEXT
  5
F6
330
1F
100
AcDbEntity
  8
0
  6
Continuous
 62
     7
370
     0
100
AcDbMText
 10
76.9200738929
 20
10.06015409
 30
0.0
 40
3.96875
 41
0.0
 71
     2
 72
     1
  1
11
  7
SLDTEXTSTYLE2
 73
     1
 44
1.0
  0
MTEXT
  5
F7
330
1F
100
AcDbEntity
  8
0
  6
Continuous
 62
     7
370
     0
100
AcDbMText
 10
76.9200738929
 20
415.06015409
 30
0.0
 40
3.96875
 41
0.0
 71
     2
 72
     1
  1
11
  7
SLDTEXTSTYLE2
 73
     1
 44
1.0
  0
MTEXT
  5
F8
330
1F
100
AcDbEntity
  8
0
  6
Continuous
 62
     7
370
     0
100
AcDbMText
 10
126.9200738929
 20
10.06015409
 30
0.0
 40
3.96875
 41
0.0
 71
     2
 72
     1
  1
10
  7
SLDTEXTSTYLE2
 73
     1
 44
1.0
  0
MTEXT
  5
F9
330
1F
100
AcDbEntity
  8
0
  6
Continuous
 62
     7
370
     0
100
AcDbMText
 10
126.9200738929
 20
415.06015409
 30
0.0
 40
3.96875
 41
0.0
 71
     2
 72
     1
  1
10
  7
SLDTEXTSTYLE2
 73
     1
 44
1.0
  0
MTEXT
  5
FA
330
1F
100
AcDbEntity
  8
0
  6
Continuous
 62
     7
370
     0
100
AcDbMText
 10
176.9600369465
 20
10.06015409
 30
0.0
 40
3.96875
 41
0.0
 71
     2
 72
     1
  1
9
  7
SLDTEXTSTYLE2
 73
     1
 44
1.0
  0
MTEXT
  5
FB
330
1F
100
AcDbEntity
  8
0
  6
Continuous
 62
     7
370
     0
100
AcDbMText
 10
176.9600369465
 20
415.06015409
 30
0.0
 40
3.96875
 41
0.0
 71
     2
 72
     1
  1
9
  7
SLDTEXTSTYLE2
 73
     1
 44
1.0
  0
MTEXT
  5
FC
330
1F
100
AcDbEntity
  8
0
  6
Continuous
 62
     7
370
     0
100
AcDbMText
 10
226.9600369465
 20
10.06015409
 30
0.0
 40
3.96875
 41
0.0
 71
     2
 72
     1
  1
8
  7
SLDTEXTSTYLE2
 73
     1
 44
1.0
  0
MTEXT
  5
FD
330
1F
100
AcDbEntity
  8
0
  6
Continuous
 62
     7
370
     0
100
AcDbMText
 10
226.9600369465
 20
415.06015409
 30
0.0
 40
3.96875
 41
0.0
 71
     2
 72
     1
  1
8
  7
SLDTEXTSTYLE2
 73
     1
 44
1.0
  0
MTEXT
  5
FE
330
1F
100
AcDbEntity
  8
0
  6
Continuous
 62
     7
370
     0
100
AcDbMText
 10
276.9600369465
 20
10.06015409
 30
0.0
 40
3.96875
 41
0.0
 71
     2
 72
     1
  1
7
  7
SLDTEXTSTYLE2
 73
     1
 44
1.0
  0
MTEXT
  5
FF
330
1F
100
AcDbEntity
  8
0
  6
Continuous
 62
     7
370
     0
100
AcDbMText
 10
276.9600369465
 20
415.06015409
 30
0.0
 40
3.96875
 41
0.0
 71
     2
 72
     1
  1
7
  7
SLDTEXTSTYLE2
 73
     1
 44
1.0
  0
MTEXT
  5
100
330
1F
100
AcDbEntity
  8
0
  6
Continuous
 62
     7
370
     0
100
AcDbMText
 10
326.9600369465
 20
10.06015409
 30
0.0
 40
3.96875
 41
0.0
 71
     2
 72
     1
  1
6
  7
SLDTEXTSTYLE2
 73
     1
 44
1.0
  0
MTEXT
  5
101
330
1F
100
AcDbEntity
  8
0
  6
Continuous
 62
     7
370
     0
100
AcDbMText
 10
326.9600369465
 20
415.06015409
 30
0.0
 40
3.96875
 41
0.0
 71
     2
 72
     1
  1
6
  7
SLDTEXTSTYLE2
 73
     1
 44
1.0
  0
MTEXT
  5
102
330
1F
100
AcDbEntity
  8
0
  6
Continuous
 62
     7
370
     0
100
AcDbMText
 10
376.9600369465
 20
10.06015409
 30
0.0
 40
3.96875
 41
0.0
 71
     2
 72
     1
  1
5
  7
SLDTEXTSTYLE2
 73
     1
 44
1.0
  0
MTEXT
  5
103
330
1F
100
AcDbEntity
  8
0
  6
Continuous
 62
     7
370
     0
100
AcDbMText
 10
376.9600369465
 20
415.06015409
 30
0.0
 40
3.96875
 41
0.0
 71
     2
 72
     1
  1
5
  7
SLDTEXTSTYLE2
 73
     1
 44
1.0
  0
MTEXT
  5
104
330
1F
100
AcDbEntity
  8
0
  6
Continuous
 62
     7
370
     0
100
AcDbMText
 10
426.9600369465
 20
10.06015409
 30
0.0
 40
3.96875
 41
0.0
 71
     2
 72
     1
  1
4
  7
SLDTEXTSTYLE2
 73
     1
 44
1.0
  0
MTEXT
  5
105
330
1F
100
AcDbEntity
  8
0
  6
Continuous
 62
     7
370
     0
100
AcDbMText
 10
426.9600369465
 20
415.06015409
 30
0.0
 40
3.96875
 41
0.0
 71
     2
 72
     1
  1
4
  7
SLDTEXTSTYLE2
 73
     1
 44
1.0
  0
MTEXT
  5
106
330
1F
100
AcDbEntity
  8
0
  6
Continuous
 62
     7
370
     0
100
AcDbMText
 10
476.9600369465
 20
10.06015409
 30
0.0
 40
3.96875
 41
0.0
 71
     2
 72
     1
  1
3
  7
SLDTEXTSTYLE2
 73
     1
 44
1.0
  0
MTEXT
  5
107
330
1F
100
AcDbEntity
  8
0
  6
Continuous
 62
     7
370
     0
100
AcDbMText
 10
476.9600369465
 20
415.06015409
 30
0.0
 40
3.96875
 41
0.0
 71
     2
 72
     1
  1
3
  7
SLDTEXTSTYLE2
 73
     1
 44
1.0
  0
MTEXT
  5
108
330
1F
100
AcDbEntity
  8
0
  6
Continuous
 62
     7
370
     0
100
AcDbMText
 10
526.9600369465
 20
10.06015409
 30
0.0
 40
3.96875
 41
0.0
 71
     2
 72
     1
  1
2
  7
SLDTEXTSTYLE2
 73
     1
 44
1.0
  0
MTEXT
  5
109
330
1F
100
AcDbEntity
  8
0
  6
Continuous
 62
     7
370
     0
100
AcDbMText
 10
526.9600369465
 20
415.06015409
 30
0.0
 40
3.96875
 41
0.0
 71
     2
 72
     1
  1
2
  7
SLDTEXTSTYLE2
 73
     1
 44
1.0
  0
MTEXT
  5
10A
330
1F
100
AcDbEntity
  8
0
  6
Continuous
 62
     7
370
     0
100
AcDbMText
 10
567.9600369465
 20
10.06015409
 30
0.0
 40
3.96875
 41
0.0
 71
     2
 72
     1
  1
1
  7
SLDTEXTSTYLE2
 73
     1
 44
1.0
  0
MTEXT
  5
10B
330
1F
100
AcDbEntity
  8
0
  6
Continuous
 62
     7
370
     0
100
AcDbMText
 10
567.9600369465
 20
415.06015409
 30
0.0
 40
3.96875
 41
0.0
 71
     2
 72
     1
  1
1
  7
SLDTEXTSTYLE2
 73
     1
 44
1.0
  0
LINE
  5
10C
330
1F
100
AcDbEntity
  8
0
  6
Continuous
 62
     7
370
    25
100
AcDbLine
 10
143.9274912641
 20
100.2682693335
 30
0.0
 11
181.9274900422
 21
100.2682693335
 31
0.0
  0
LINE
  5
10D
330
1F
100
AcDbEntity
  8
0
  6
Continuous
 62
     7
370
    25
100
AcDbLine
 10
170.4274904855
 20
145.2682711216
 30
0.0
 11
170.4274904855
 21
120.2682688864
 31
0.0
  0
LINE
  5
10E
330
1F
100
AcDbEntity
  8
0
  6
Continuous
 62
     7
370
    25
100
AcDbLine
 10
154.9274902731
 20
103.2682693596
 30
0.0
 11
148.927490221
 21
103.2682693596
 31
0.0
  0
ARC
  5
10F
330
1F
100
AcDbEntity
  8
0
  6
Continuous
 62
     7
370
    25
100
AcDbCircle
 10
170.9274906531
 20
106.2682693335
 30
0.0
 40
3.0
100
AcDbArc
 50
90.0
 51
270.0
  0
LINE
  5
110
330
1F
100
AcDbEntity
  8
0
  6
Continuous
 62
     7
370
    25
100
AcDbLine
 10
143.9274912641
 20
100.2682693335
 30
0.0
 11
143.9274912641
 21
175.2682723137
 31
0.0
  0
ARC
  5
111
330
1F
100
AcDbEntity
  8
0
  6
Continuous
 62
     7
370
    25
100
AcDbCircle
 10
162.9274906531
 20
175.2682693335
 30
0.0
 40
19.0
100
AcDbArc
 50
0.0
 51
180.0
  0
LINE
  5
112
330
1F
100
AcDbEntity
  8
0
  6
Continuous
 62
     7
370
    25
100
AcDbLine
 10
181.9274900422
 20
100.2682693335
 30
0.0
 11
181.9274900422
 21
175.2682723137
 31
0.0
  0
ARC
  5
113
330
1F
100
AcDbEntity
  8
0
  6
Continuous
 62
     7
370
    25
100
AcDbCircle
 10
162.9274906531
 20
145.2682693335
 30
0.0
 40
7.5
100
AcDbArc
 50
0.0
 51
180.0
  0
LINE
  5
114
330
1F
100
AcDbEntity
  8
0
  6
Continuous
 62
     7
370
    25
100
AcDbLine
 10
155.4274908207
 20
145.2682711216
 30
0.0
 11
155.4274908207
 21
120.2682688864
 31
0.0
  0
ARC
  5
115
330
1F
100
AcDbEntity
  8
0
  6
Continuous
 62
     7
370
    25
100
AcDbCircle
 10
162.9274906531
 20
120.2682693335
 30
0.0
 40
7.5
100
AcDbArc
 50
180.0
 51
0.0
  0
ARC
  5
116
330
1F
100
AcDbEntity
  8
0
  6
Continuous
 62
     7
370
    25
100
AcDbCircle
 10
154.9274906531
 20
106.2682693335
 30
0.0
 40
3.0
100
AcDbArc
 50
270.0
 51
90.0
  0
LINE
  5
117
330
1F
100
AcDbEntity
  8
0
  6
Continuous
 62
     7
370
    25
100
AcDbLine
 10
154.9274902731
 20
109.2682689461
 30
0.0
 11
148.927490221
 21
109.2682689461
 31
0.0
  0
ARC
  5
118
330
1F
100
AcDbEntity
  8
0
  6
Continuous
 62
     7
370
    25
100
AcDbCircle
 10
148.9274906531
 20
106.2682693335
 30
0.0
 40
3.0
100
AcDbArc
 50
90.0
 51
270.0
  0
LINE
  5
119
330
1F
100
AcDbEntity
  8
0
  6
Continuous
 62
     7
370
    25
100
AcDbLine
 10
170.9274910331
 20
103.2682693596
 30
0.0
 11
176.9274910852
 21
103.2682693596
 31
0.0
  0
ARC
  5
11A
330
1F
100
AcDbEntity
  8
0
  6
Continuous
 62
     7
370
    25
100
AcDbCircle
 10
176.9274906531
 20
106.2682693335
 30
0.0
 40
3.0
100
AcDbArc
 50
270.0
 51
90.0
  0
LINE
  5
11B
330
1F
100
AcDbEntity
  8
0
  6
Continuous
 62
     7
370
    25
100
AcDbLine
 10
170.9274910331
 20
109.2682689461
 30
0.0
 11
176.9274910852
 21
109.2682689461
 31
0.0
  0
CIRCLE
  5
11C
330
1F
100
AcDbEntity
  8
0
  6
Continuous
 62
     7
370
    25
100
AcDbCircle
 10
162.9274906531
 20
175.2682693335
 30
0.0
 40
10.00000000000003
  0
CIRCLE
  5
11D
330
1F
100
AcDbEntity
  8
0
  6
HIDDEN
 62
     7
370
    18
100
AcDbCircle
 10
162.9274906531
 20
175.2682693335
 30
0.0
 40
12.02500000000001
  0
LINE
  5
11E
330
1F
100
AcDbEntity
  8
0
  6
HIDDEN
 62
     7
370
    18
100
AcDbLine
 10
175.4774907544
 20
100.2682693335
 30
0.0
 11
175.4774907544
 21
103.2682693596
 31
0.0
  0
LINE
  5
11F
330
1F
100
AcDbEntity
  8
0
  6
HIDDEN
 62
     7
370
    18
100
AcDbLine
 10
172.3774904326
 20
103.2682693596
 30
0.0
 11
172.3774904326
 21
100.2682693335
 31
0.0
  0
LINE
  5
120
330
1F
100
AcDbEntity
  8
0
  6
HIDDEN
 62
     7
370
    18
100
AcDbLine
 10
153.4774908736
 20
100.2682693335
 30
0.0
 11
153.4774908736
 21
103.2682693596
 31
0.0
  0
LINE
  5
121
330
1F
100
AcDbEntity
  8
0
  6
HIDDEN
 62
     7
370
    18
100
AcDbLine
 10
150.3774905518
 20
103.2682693596
 30
0.0
 11
150.3774905518
 21
100.2682693335
 31
0.0
  0
DIMENSION
  5
122
330
1F
100
AcDbEntity
  8
0
  6
Continuous
 62
     7
370
    18
100
AcDbDimension
  2
_D
 10
162.9274906531
 20
175.2682693335
 30
0.0
 11
191.7001655953
 21
225.1039968826
 31
0.0
 70
   164
  1
<>
 71
     1
 42
-1.0
  3
SLDDIMSTYLE0
100
AcDbRadialDimension
 15
172.4274906531
 25
191.7227520054
 35
0.0
 40
0.0
  0
DIMENSION
  5
132
330
1F
100
AcDbEntity
  8
0
  6
Continuous
 62
     7
370
    18
100
AcDbDimension
  2
_D_1
 10
155.1708701265
 20
168.9567847216
 30
0.0
 11
191.7001655953
 21
198.6803092762
 31
0.0
 70
   163
  1
<>
 71
     1
 42
-1.0
  3
SLDDIMSTYLE1
100
AcDbDiametricDimension
 15
170.6841111798
 25
181.5797539453
 35
0.0
 40
0.0
  0
DIMENSION
  5
13F
330
1F
100
AcDbEntity
  8
0
  6
Continuous
 62
     7
370
    18
100
AcDbDimension
  2
_D_2
 10
174.9524906531
 20
206.8615289327
 30
0.0
 11
163.4931335429
 21
206.8615289327
 31
0.0
 70
   160
  1
%%c<>
 71
     2
 42
-1.0
  3
SLDDIMSTYLE2
100
AcDbAlignedDimension
 13
150.9024906531
 23
175.2682693335
 33
0.0
 14
174.9524906531
 24
175.2682693335
 34
0.0
100
AcDbRotatedDimension
  0
DIMENSION
  5
14D
330
1F
100
AcDbEntity
  8
0
  6
Continuous
 62
     7
370
    18
100
AcDbDimension
  2
_D_3
 10
162.9274906531
 20
145.2682693335
 30
0.0
 11
194.2516492231
 21
163.3532849425
 31
0.0
 70
   164
  1
<>
 71
     1
 42
-1.0
  3
SLDDIMSTYLE3
100
AcDbRadialDimension
 15
169.4226811815
 25
149.0182693335
 35
0.0
 40
0.0
  0
DIMENSION
  5
156
330
1F
100
AcDbEntity
  8
0
  6
Continuous
 62
     7
370
    18
100
AcDbDimension
  2
_D_4
 10
207.5113748167
 20
120.2682693335
 30
0.0
 11
207.5113748167
 21
142.4503576717
 31
0.0
 70
   160
  1
<>
 71
     2
 42
-1.0
  3
SLDDIMSTYLE4
100
AcDbAlignedDimension
 13
170.4274906531
 23
145.2682693335
 33
0.0
 14
170.4274906531
 24
120.2682693335
 34
0.0
 50
90.0
100
AcDbRotatedDimension
  0
DIMENSION
  5
161
330
1F
100
AcDbEntity
  8
0
  6
Continuous
 62
     7
370
    18
100
AcDbDimension
  2
_D_5
 10
102.1520139284
 20
175.2682693335
 30
0.0
 11
102.1520139284
 21
155.7141728848
 31
0.0
 70
   160
  1
<>
 71
     2
 42
-1.0
  3
SLDDIMSTYLE4
100
AcDbAlignedDimension
 13
143.9274906531
 23
100.2682693335
 33
0.0
 14
143.9274906531
 24
175.2682693335
 34
0.0
 50
90.0
100
AcDbRotatedDimension
  0
DIMENSION
  5
16B
330
1F
100
AcDbEntity
  8
0
  6
Continuous
 62
     7
370
    18
100
AcDbDimension
  2
_D_6
 10
181.9274906531
 20
80.1702401794
 30
0.0
 11
182.5321907966
 21
80.1702401794
 31
0.0
 70
   160
  1
<>
 71
     2
 42
-1.0
  3
SLDDIMSTYLE4
100
AcDbAlignedDimension
 13
143.9274906531
 23
100.2682693335
 33
0.0
 14
181.9274906531
 24
100.2682693335
 34
0.0
100
AcDbRotatedDimension
  0
DIMENSION
  5
176
330
1F
100
AcDbEntity
  8
0
  6
Continuous
 62
     7
370
    18
100
AcDbDimension
  2
_D_7
 10
148.9274906531
 20
106.2682693335
 30
0.0
 11
127.1870007245
 21
118.8201628196
 31
0.0
 70
   164
  1
<>
 71
     1
 42
-1.0
  3
SLDDIMSTYLE0
100
AcDbRadialDimension
 15
146.3294144418
 25
107.7682693335
 35
0.0
 40
0.0
  0
DIMENSION
  5
17E
330
1F
100
AcDbEntity
  8
0
  6
Continuous
 62
     7
370
    18
100
AcDbDimension
  2
_D_8
 10
148.9274906531
 20
90.2682693335
 30
0.0
 11
159.4570404801
 21
90.2682693335
 31
0.0
 70
   160
  1
%%c<>
 71
     2
 42
-1.0
  3
SLDDIMSTYLE2
100
AcDbAlignedDimension
 13
154.9274906531
 23
103.2682693335
 33
0.0
 14
148.9274906531
 24
103.2682693335
 34
0.0
100
AcDbRotatedDimension
  0
DIMENSION
  5
18B
330
1F
100
AcDbEntity
  8
0
  6
Continuous
 62
     7
370
    18
100
AcDbDimension
  2
_D_9
 10
150.3774906531
 20
95.2671022161
 30
0.0
 11
162.2071832362
 21
95.2671022161
 31
0.0
 70
   160
  1
%%c<>
 71
     2
 42
-1.0
  3
SLDDIMSTYLE5
100
AcDbAlignedDimension
 13
153.4774906531
 23
100.2682693335
 33
0.0
 14
150.3774906531
 24
100.2682693335
 34
0.0
100
AcDbRotatedDimension
  0
DIMENSION
  5
199
330
1F
100
AcDbEntity
  8
0
  6
Continuous
 62
     7
370
    18
100
AcDbDimension
  2
_D_10
 10
137.7276428799
 20
100.2682693335
 30
0.0
 11
137.7276428799
 21
101.9989758141
 31
0.0
 70
   160
  1
<>
 71
     2
 42
-1.0
  3
SLDDIMSTYLE2
100
AcDbAlignedDimension
 13
148.9274906531
 23
103.2682693335
 33
0.0
 14
143.9274906531
 24
100.2682693335
 34
0.0
 50
90.0
100
AcDbRotatedDimension
  0
DIMENSION
  5
1A5
330
1F
100
AcDbEntity
  8
0
  6
Continuous
 62
     7
370
    18
100
AcDbDimension
  2
_D_11
 10
207.5113748167
 20
100.2682693335
 30
0.0
 11
207.5113748167
 21
108.7352319725
 31
0.0
 70
   160
  1
<>
 71
     2
 42
-1.0
  3
SLDDIMSTYLE2
100
AcDbAlignedDimension
 13
162.9274906531
 23
120.2682693335
 33
0.0
 14
181.9274906531
 24
100.2682693335
 34
0.0
 50
90.0
100
AcDbRotatedDimension
  0
INSERT
  5
1BA
330
1F
100
AcDbEntity
  8
0
  6
Continuous
 62
     7
370
     0
100
AcDbBlockReference
  2
SW_CENTERMARKSYMBOL_0
 10
162.9274906531
 20
175.2682693335
 30
0.0
  0
LINE
  5
1BB
330
1F
100
AcDbEntity
  8
0
  6
Continuous
 62
     7
370
    25
100
AcDbLine
 10
181.9274900422
 20
312.0899997839
 30
0.0
 11
181.9274900422
 21
319.09
 31
0.0
  0
LINE
  5
1BC
330
1F
100
AcDbEntity
  8
0
  6
Continuous
 62
     7
370
    25
100
AcDbLine
 10
181.9274900422
 20
312.0899997839
 30
0.0
 11
143.9274912641
 21
312.0899997839
 31
0.0
  0
LINE
  5
1BD
330
1F
100
AcDbEntity
  8
0
  6
Continuous
 62
     7
370
    25
100
AcDbLine
 10
143.9274912641
 20
312.0899997839
 30
0.0
 11
143.9274912641
 21
319.09
 31
0.0
  0
LINE
  5
1BE
330
1F
100
AcDbEntity
  8
0
  6
Continuous
 62
     7
370
    25
100
AcDbLine
 10
181.9274900422
 20
319.09
 30
0.0
 11
143.9274912641
 21
319.09
 31
0.0
  0
LINE
  5
1BF
330
1F
100
AcDbEntity
  8
0
  6
HIDDEN
 62
     7
370
    18
100
AcDbLine
 10
150.9024910569
 20
314.0900001118
 30
0.0
 11
174.9524902493
 21
314.0900001118
 31
0.0
  0
LINE
  5
1C0
330
1F
100
AcDbEntity
  8
0
  6
HIDDEN
 62
     7
370
    18
100
AcDbLine
 10
155.4274908207
 20
312.0899997839
 30
0.0
 11
155.4274908207
 21
319.09
 31
0.0
  0
LINE
  5
1C1
330
1F
100
AcDbEntity
  8
0
  6
HIDDEN
 62
     7
370
    18
100
AcDbLine
 10
170.4274904855
 20
312.0899997839
 30
0.0
 11
170.4274904855
 21
319.09
 31
0.0
  0
LINE
  5
1C2
330
1F
100
AcDbEntity
  8
0
  6
HIDDEN
 62
     7
370
    18
100
AcDbLine
 10
170.9274910331
 20
312.0899997839
 30
0.0
 11
170.9274910331
 21
319.09
 31
0.0
  0
LINE
  5
1C3
330
1F
100
AcDbEntity
  8
0
  6
HIDDEN
 62
     7
370
    18
100
AcDbLine
 10
154.9274902731
 20
312.0899997839
 30
0.0
 11
154.9274902731
 21
319.09
 31
0.0
  0
LINE
  5
1C4
330
1F
100
AcDbEntity
  8
0
  6
HIDDEN
 62
     7
370
    18
100
AcDbLine
 10
148.927490221
 20
312.0899997839
 30
0.0
 11
148.927490221
 21
319.09
 31
0.0
  0
LINE
  5
1C5
330
1F
100
AcDbEntity
  8
0
  6
HIDDEN
 62
     7
370
    18
100
AcDbLine
 10
176.9274910852
 20
312.0899997839
 30
0.0
 11
176.9274910852
 21
319.09
 31
0.0
  0
CIRCLE
  5
1C6
330
1F
100
AcDbEntity
  8
0
  6
HIDDEN
 62
     7
370
    18
100
AcDbCircle
 10
173.9274906531
 20
315.59
 30
0.0
 40
1.55000000000004
  0
CIRCLE
  5
1C7
330
1F
100
AcDbEntity
  8
0
  6
HIDDEN
 62
     7
370
    18
100
AcDbCircle
 10
151.9274906531
 20
315.59
 30
0.0
 40
1.550000000000011
  0
LINE
  5
1C8
330
1F
100
AcDbEntity
  8
0
  6
HIDDEN
 62
     7
370
    18
100
AcDbLine
 10
150.9024910569
 20
319.09
 30
0.0
 11
150.9024910569
 21
314.0900001118
 31
0.0
  0
LINE
  5
1C9
330
1F
100
AcDbEntity
  8
0
  6
HIDDEN
 62
     7
370
    18
100
AcDbLine
 10
174.9524902493
 20
314.0900001118
 30
0.0
 11
174.9524902493
 21
319.09
 31
0.0
  0
LINE
  5
1CA
330
1F
100
AcDbEntity
  8
0
  6
HIDDEN
 62
     7
370
    18
100
AcDbLine
 10
152.9274908766
 20
314.0900001118
 30
0.0
 11
152.9274908766
 21
312.0899997839
 31
0.0
  0
LINE
  5
1CB
330
1F
100
AcDbEntity
  8
0
  6
HIDDEN
 62
     7
370
    18
100
AcDbLine
 10
172.9274904296
 20
312.0899997839
 30
0.0
 11
172.9274904296
 21
314.0900001118
 31
0.0
  0
LINE
  5
1CC
330
1F
100
AcDbEntity
  8
0
  6
HIDDEN
 62
     7
370
    18
100
AcDbLine
 10
167.9274905413
 20
319.09
 30
0.0
 11
167.9274905413
 21
312.0899997839
 31
0.0
  0
LINE
  5
1CD
330
1F
100
AcDbEntity
  8
0
  6
HIDDEN
 62
     7
370
    18
100
AcDbLine
 10
157.9274907649
 20
312.0899997839
 30
0.0
 11
157.9274907649
 21
319.09
 31
0.0
  0
LINE
  5
1CE
330
1F
100
AcDbEntity
  8
0
  6
HIDDEN
 62
     7
370
    18
100
AcDbLine
 10
145.9274897292
 20
319.09
 30
0.0
 11
145.9274897292
 21
312.0899997839
 31
0.0
  0
LINE
  5
1CF
330
1F
100
AcDbEntity
  8
0
  6
HIDDEN
 62
     7
370
    18
100
AcDbLine
 10
179.927491577
 20
312.0899997839
 30
0.0
 11
179.927491577
 21
319.09
 31
0.0
  0
DIMENSION
  5
1D0
330
1F
100
AcDbEntity
  8
0
  6
Continuous
 62
     7
370
    18
100
AcDbDimension
  2
_D_12
 10
83.3248710614
 20
319.09
 30
0.0
 11
83.3248710614
 21
317.2262686537
 31
0.0
 70
   160
  1
<>
 71
     2
 42
-1.0
  3
SLDDIMSTYLE2
100
AcDbAlignedDimension
 13
143.9274906531
 23
312.09
 33
0.0
 14
143.9274906531
 24
319.09
 34
0.0
 50
90.0
100
AcDbRotatedDimension
  0
DIMENSION
  5
1DC
330
1F
100
AcDbEntity
  8
0
  6
Continuous
 62
     7
370
    18
100
AcDbDimension
  2
_D_13
 10
143.9274906531
 20
336.4585934048
 30
0.0
 11
160.8208797323
 21
336.4585934048
 31
0.0
 70
   160
  1
%%c<>
 71
     2
 42
-1.0
  3
SLDDIMSTYLE4
100
AcDbAlignedDimension
 13
181.9274906531
 23
319.09
 33
0.0
 14
143.9274906531
 24
319.09
 34
0.0
100
AcDbRotatedDimension
  0
DIMENSION
  5
1E7
330
1F
100
AcDbEntity
  8
0
  6
Continuous
 62
     7
370
    18
100
AcDbDimension
  2
_D_14
 10
151.9274906531
 20
330.2377310749
 30
0.0
 11
166.9011017337
 21
330.2377310749
 31
0.0
 70
   160
  1
<>
 71
     2
 42
-1.0
  3
SLDDIMSTYLE4
100
AcDbAlignedDimension
 13
173.9274906531
 23
315.59
 33
0.0
 14
151.9274906531
 24
315.59
 34
0.0
100
AcDbRotatedDimension
  0
LINE
  5
1F1
330
1F
100
AcDbEntity
  8
0
  6
Continuous
 62
     7
370
    25
100
AcDbLine
 10
345.05
 20
194.2682661148
 30
0.0
 11
338.0499997839
 21
194.2682661148
 31
0.0
  0
LINE
  5
1F2
330
1F
100
AcDbEntity
  8
0
  6
Continuous
 62
     7
370
    25
100
AcDbLine
 10
338.0499997839
 20
175.2682723137
 30
0.0
 11
345.05
 21
175.2682723137
 31
0.0
  0
LINE
  5
1F3
330
1F
100
AcDbEntity
  8
0
  6
Continuous
 62
     7
370
    25
100
AcDbLine
 10
338.0499997839
 20
175.2682723137
 30
0.0
 11
338.0499997839
 21
194.2682661148
 31
0.0
  0
LINE
  5
1F4
330
1F
100
AcDbEntity
  8
0
  6
Continuous
 62
     7
370
    25
100
AcDbLine
 10
345.05
 20
175.2682723137
 30
0.0
 11
345.05
 21
194.2682661148
 31
0.0
  0
LINE
  5
1F5
330
1F
100
AcDbEntity
  8
0
  6
Continuous
 62
     7
370
    25
100
AcDbLine
 10
338.0499997839
 20
100.2682693335
 30
0.0
 11
338.0499997839
 21
175.2682723137
 31
0.0
  0
LINE
  5
1F6
330
1F
100
AcDbEntity
  8
0
  6
Continuous
 62
     7
370
    25
100
AcDbLine
 10
345.05
 20
100.2682693335
 30
0.0
 11
345.05
 21
175.2682723137
 31
0.0
  0
LINE
  5
1F7
330
1F
100
AcDbEntity
  8
0
  6
Continuous
 62
     7
370
    25
100
AcDbLine
 10
338.0499997839
 20
100.2682693335
 30
0.0
 11
345.05
 21
100.2682693335
 31
0.0
  0
LINE
  5
1F8
330
1F
100
AcDbEntity
  8
0
  6
HIDDEN
 62
     7
370
    18
100
AcDbLine
 10
338.0499997839
 20
175.2682723137
 30
0.0
 11
345.05
 21
175.2682723137
 31
0.0
  0
LINE
  5
1F9
330
1F
100
AcDbEntity
  8
0
  6
HIDDEN
 62
     7
370
    18
100
AcDbLine
 10
338.0499997839
 20
109.2682689461
 30
0.0
 11
345.05
 21
109.2682689461
 31
0.0
  0
LINE
  5
1FA
330
1F
100
AcDbEntity
  8
0
  6
HIDDEN
 62
     7
370
    18
100
AcDbLine
 10
338.0499997839
 20
103.2682693596
 30
0.0
 11
345.05
 21
103.2682693596
 31
0.0
  0
LINE
  5
1FB
330
1F
100
AcDbEntity
  8
0
  6
HIDDEN
 62
     7
370
    18
100
AcDbLine
 10
340.0500001118
 20
187.2932709786
 30
0.0
 11
340.0500001118
 21
163.2432661983
 31
0.0
  0
LINE
  5
1FC
330
1F
100
AcDbEntity
  8
0
  6
HIDDEN
 62
     7
370
    18
100
AcDbLine
 10
338.0499997839
 20
120.2682688864
 30
0.0
 11
345.05
 21
120.2682688864
 31
0.0
  0
LINE
  5
1FD
330
1F
100
AcDbEntity
  8
0
  6
HIDDEN
 62
     7
370
    18
100
AcDbLine
 10
338.0499997839
 20
145.2682711216
 30
0.0
 11
345.05
 21
145.2682711216
 31
0.0
  0
LINE
  5
1FE
330
1F
100
AcDbEntity
  8
0
  6
HIDDEN
 62
     7
370
    18
100
AcDbLine
 10
343.1000000529
 20
100.2682693335
 30
0.0
 11
343.1000000529
 21
103.2682693596
 31
0.0
  0
LINE
  5
1FF
330
1F
100
AcDbEntity
  8
0
  6
HIDDEN
 62
     7
370
    18
100
AcDbLine
 10
340.0000001967
 20
103.2682693596
 30
0.0
 11
340.0000001967
 21
100.2682693335
 31
0.0
  0
LINE
  5
200
330
1F
100
AcDbEntity
  8
0
  6
HIDDEN
 62
     7
370
    18
100
AcDbLine
 10
345.05
 20
187.2932709786
 30
0.0
 11
340.0500001118
 21
187.2932709786
 31
0.0
  0
LINE
  5
201
330
1F
100
AcDbEntity
  8
0
  6
HIDDEN
 62
     7
370
    18
100
AcDbLine
 10
340.0500001118
 20
163.2432661983
 30
0.0
 11
345.05
 21
163.2432661983
 31
0.0
  0
LINE
  5
202
330
1F
100
AcDbEntity
  8
0
  6
HIDDEN
 62
     7
370
    18
100
AcDbLine
 10
340.0500001118
 20
185.2682702276
 30
0.0
 11
338.0499997839
 21
185.2682702276
 31
0.0
  0
LINE
  5
203
330
1F
100
AcDbEntity
  8
0
  6
HIDDEN
 62
     7
370
    18
100
AcDbLine
 10
338.0499997839
 20
165.2682669493
 30
0.0
 11
340.0500001118
 21
165.2682669493
 31
0.0
  0
LINE
  5
204
330
1F
100
AcDbEntity
  8
0
  6
HIDDEN
 62
     7
370
    18
100
AcDbLine
 10
338.0499997839
 20
112.7682695197
 30
0.0
 11
345.05
 21
112.7682695197
 31
0.0
  0
LINE
  5
205
330
1F
100
AcDbEntity
  8
0
  6
HIDDEN
 62
     7
370
    18
100
AcDbLine
 10
345.05
 20
152.7682676944
 30
0.0
 11
338.0499997839
 21
152.7682676944
 31
0.0
  0
DIMENSION
  5
206
330
1F
100
AcDbEntity
  8
0
  6
Continuous
 62
     7
370
    18
100
AcDbDimension
  2
_D_15
 10
338.05
 20
213.9141605236
 30
0.0
 11
341.6490001702
 21
213.9141605236
 31
0.0
 70
   160
  1
<>
 71
     2
 42
-1.0
  3
SLDDIMSTYLE2
100
AcDbAlignedDimension
 13
345.05
 23
194.2682693335
 33
0.0
 14
338.05
 24
194.2682693335
 34
0.0
100
AcDbRotatedDimension
  0
DIMENSION
  5
212
330
1F
100
AcDbEntity
  8
0
  6
Continuous
 62
     7
370
    18
100
AcDbDimension
  2
_D_16
 10
300.1682692296
 20
100.2682693335
 30
0.0
 11
300.1682692296
 21
176.4803301626
 31
0.0
 70
   160
  1
<>
 71
     2
 42
-1.0
  3
SLDDIMSTYLE4
100
AcDbAlignedDimension
 13
338.05
 23
194.2682693335
 33
0.0
 14
338.05
 24
100.2682693335
 34
0.0
 50
90.0
100
AcDbRotatedDimension
  0
DIMENSION
  5
21C
330
1F
100
AcDbEntity
  8
0
  6
Continuous
 62
     7
370
    18
100
AcDbDimension
  2
_D_17
 10
320.4315783871
 20
165.2682693335
 30
0.0
 11
320.4315783871
 21
171.8343958404
 31
0.0
 70
   160
  1
%%c<>
 71
     2
 42
-1.0
  3
SLDDIMSTYLE2
100
AcDbAlignedDimension
 13
338.05
 23
185.2682693335
 33
0.0
 14
338.05
 24
165.2682693335
 34
0.0
 50
90.0
100
AcDbRotatedDimension
  0
DIMENSION
  5
229
330
1F
100
AcDbEntity
  8
0
  6
Continuous
 62
     7
370
    18
100
AcDbDimension
  2
_D_18
 10
338.05
 20
201.3378358917
 30
0.0
 11
334.2046746129
 21
201.3378358917
 31
0.0
 70
   160
  1
<>
 71
     2
 42
-1.0
  3
SLDDIMSTYLE2
100
AcDbAlignedDimension
 13
340.05
 23
187.2932693335
 33
0.0
 14
338.05
 24
185.2682693335
 34
0.0
100
AcDbRotatedDimension
  0
DIMENSION
  5
235
330
1F
100
AcDbEntity
  8
0
  6
Continuous
 62
     7
370
    18
100
AcDbDimension
  2
_D_19
 10
340.05
 20
196.2834507168
 30
0.0
 11
351.2292828723
 21
196.2834507168
 31
0.0
 70
   160
  1
<>
 71
     2
 42
-1.0
  3
SLDDIMSTYLE2
100
AcDbAlignedDimension
 13
345.05
 23
187.2932693335
 33
0.0
 14
340.05
 24
187.2932693335
 34
0.0
100
AcDbRotatedDimension
  0
DIMENSION
  5
241
330
1F
100
AcDbEntity
  8
0
  6
Continuous
 62
     7
370
    18
100
AcDbDimension
  2
_D_20
 10
373.7868626948
 20
163.2432693335
 30
0.0
 11
373.7868626948
 21
174.4467425774
 31
0.0
 70
   160
  1
%%c<>
 71
     2
 42
-1.0
  3
SLDDIMSTYLE2
100
AcDbAlignedDimension
 13
345.05
 23
187.2932693335
 33
0.0
 14
345.05
 24
163.2432693335
 34
0.0
 50
90.0
100
AcDbRotatedDimension
  0
DIMENSION
  5
24E
330
1F
100
AcDbEntity
  8
0
  6
Continuous
 62
     7
370
    18
100
AcDbDimension
  2
_D_21
 10
362.9509612725
 20
194.2682693335
 30
0.0
 11
362.9509612725
 21
185.5735406821
 31
0.0
 70
   160
  1
<>
 71
     2
 42
-1.0
  3
SLDDIMSTYLE2
100
AcDbAlignedDimension
 13
345.05
 23
175.2682693335
 33
0.0
 14
345.05
 24
194.2682693335
 34
0.0
 50
90.0
100
AcDbRotatedDimension
  0
DIMENSION
  5
258
330
1F
100
AcDbEntity
  8
0
  6
Continuous
 62
     7
370
    18
100
AcDbDimension
  2
_D_22
 10
310.05
 20
194.2682693335
 30
0.0
 11
310.05
 21
161.7631386351
 31
0.0
 70
   160
  1
<>
 71
     2
 42
-1.0
  3
SLDDIMSTYLE6
100
AcDbAlignedDimension
 13
338.05
 23
152.7682693335
 33
0.0
 14
338.05
 24
194.2682693335
 34
0.0
 50
90.0
100
AcDbRotatedDimension
  0
DIMENSION
  5
263
330
1F
100
AcDbEntity
  8
0
  6
Continuous
 62
     7
370
    18
100
AcDbDimension
  2
_D_23
 10
311.4885337875
 20
152.7682693335
 30
0.0
 11
311.4885337875
 21
146.4724786564
 31
0.0
 70
   160
  1
<>
 71
     2
 42
-1.0
  3
SLDDIMSTYLE5
100
AcDbAlignedDimension
 13
338.05
 23
145.2682693335
 33
0.0
 14
338.05
 24
152.7682693335
 34
0.0
 50
90.0
100
AcDbRotatedDimension
  0
DIMENSION
  5
26F
330
1F
100
AcDbEntity
  8
0
  6
Continuous
 62
     7
370
    18
100
AcDbDimension
  2
_D_24
 10
311.4885337875
 20
112.7682693335
 30
0.0
 11
311.4885337875
 21
118.4830913495
 31
0.0
 70
   160
  1
<>
 71
     2
 42
-1.0
  3
SLDDIMSTYLE5
100
AcDbAlignedDimension
 13
338.05
 23
120.2682693335
 33
0.0
 14
338.05
 24
112.7682693335
 34
0.0
 50
90.0
100
AcDbRotatedDimension
  0
DIMENSION
  5
27B
330
1F
100
AcDbEntity
  8
0
  6
Continuous
 62
     7
370
    18
100
AcDbDimension
  2
_D_25
 10
320.4315783871
 20
103.2682693335
 30
0.0
 11
320.4315783871
 21
106.2766451981
 31
0.0
 70
   160
  1
%%c<>
 71
     2
 42
-1.0
  3
SLDDIMSTYLE2
100
AcDbAlignedDimension
 13
338.05
 23
109.2682693335
 33
0.0
 14
338.05
 24
103.2682693335
 34
0.0
 50
90.0
100
AcDbRotatedDimension
  0
DIMENSION
  5
288
330
1F
100
AcDbEntity
  8
0
  6
Continuous
 62
     7
370
    18
100
AcDbDimension
  2
_D_26
 10
343.1
 20
88.3650122585
 30
0.0
 11
341.0852648489
 21
88.3650122585
 31
0.0
 70
   160
  1
%%c<>
 71
     2
 42
-1.0
  3
SLDDIMSTYLE5
100
AcDbAlignedDimension
 13
340.0
 23
100.2682693335
 33
0.0
 14
343.1
 24
100.2682693335
 34
0.0
100
AcDbRotatedDimension
  0
DIMENSION
  5
295
330
1F
100
AcDbEntity
  8
0
  6
Continuous
 62
     7
370
    18
100
AcDbDimension
  2
_D_27
 10
365.8961934393
 20
103.2682693335
 30
0.0
 11
365.8961934393
 21
102.4289610851
 31
0.0
 70
   160
  1
<>
 71
     2
 42
-1.0
  3
SLDDIMSTYLE2
100
AcDbAlignedDimension
 13
345.05
 23
100.2682693335
 33
0.0
 14
345.05
 24
103.2682693335
 34
0.0
 50
90.0
100
AcDbRotatedDimension
  0
ENDSEC
  0
SECTION
  2
OBJECTS
  0
DICTIONARY
  5
C
330
0
100
AcDbDictionary
281
     1
  3
ACAD_GROUP
350
D
  3
ACAD_LAYOUT
350
1A
  3
ACAD_MLINESTYLE
350
17
  3
ACAD_PLOTSETTINGS
350
19
  3
ACAD_PLOTSTYLENAME
350
E
  3
ACAD_SCALELIST
350
47
  0
DICTIONARY
  5
D
102
{ACAD_REACTORS
330
C
102
}
330
C
100
AcDbDictionary
281
     1
  0
DICTIONARY
  5
1A
102
{ACAD_REACTORS
330
C
102
}
330
C
100
AcDbDictionary
281
     1
  3
Layout1
350
1E
  3
Layout2
350
26
  3
Model
350
22
  0
DICTIONARY
  5
17
102
{ACAD_REACTORS
330
C
102
}
330
C
100
AcDbDictionary
281
     1
  3
Standard
350
18
  0
DICTIONARY
  5
19
102
{ACAD_REACTORS
330
C
102
}
330
C
100
AcDbDictionary
281
     1
  0
ACDBDICTIONARYWDFLT
  5
E
102
{ACAD_REACTORS
330
C
102
}
330
C
100
AcDbDictionary
281
     1
  3
Normal
350
F
100
AcDbDictionaryWithDefault
340
F
  0
DICTIONARY
  5
47
102
{ACAD_REACTORS
330
C
102
}
330
C
100
AcDbDictionary
281
     1
  3
A0
350
48
  3
A1
350
49
  3
A2
350
4A
  3
A3
350
4B
  3
A4
350
4C
  3
A5
350
4D
  3
A6
350
4E
  3
A7
350
4F
  3
A8
350
50
  3
A9
350
51
  3
B0
350
52
  3
B1
350
53
  3
B2
350
54
  3
B3
350
55
  3
B4
350
56
  3
B5
350
57
  3
B6
350
58
  3
B7
350
59
  3
B8
350
5A
  3
B9
350
5B
  3
C0
350
5C
  3
C1
350
5D
  3
C2
350
5E
  3
C3
350
5F
  3
C4
350
60
  3
C5
350
61
  3
C6
350
62
  3
C7
350
63
  3
C8
350
64
  3
C9
350
65
  3
D0
350
66
  3
D1
350
67
  3
D2
350
68
  0
LAYOUT
  5
1E
102
{ACAD_REACTORS
330
1A
102
}
330
1A
100
AcDbPlotSettings
  1

  2
none_device
  4

  6

 40
0.0
 41
0.0
 42
0.0
 43
0.0
 44
0.0
 45
0.0
 46
0.0
 47
0.0
 48
0.0
 49
0.0
140
0.0
141
0.0
142
1.0
143
1.0
 70
   688
 72
     1
 73
     0
 74
     5
  7

 75
    16
147
1.0
148
0.0
149
0.0
100
AcDbLayout
  1
Layout1
 70
     1
 71
     1
 10
0.0
 20
0.0
 11
420.0
 21
297.0
 12
0.0
 22
0.0
 32
0.0
 14
1.0000000000E+20
 24
1.0000000000E+20
 34
1.0000000000E+20
 15
-1.0000000000E+20
 25
-1.0000000000E+20
 35
-1.0000000000E+20
146
0.0
 13
0.0
 23
0.0
 33
0.0
 16
1.0
 26
0.0
 36
0.0
 17
0.0
 27
1.0
 37
0.0
 76
     0
330
1B
  0
LAYOUT
  5
26
102
{ACAD_REACTORS
330
1A
102
}
330
1A
100
AcDbPlotSettings
  1

  2
none_device
  4

  6

 40
0.0
 41
0.0
 42
0.0
 43
0.0
 44
0.0
 45
0.0
 46
0.0
 47
0.0
 48
0.0
 49
0.0
140
0.0
141
0.0
142
1.0
143
1.0
 70
   688
 72
     1
 73
     0
 74
     5
  7

 75
    16
147
1.0
148
0.0
149
0.0
100
AcDbLayout
  1
Layout2
 70
     1
 71
     2
 10
0.0
 20
0.0
 11
0.0
 21
0.0
 12
0.0
 22
0.0
 32
0.0
 14
0.0
 24
0.0
 34
0.0
 15
0.0
 25
0.0
 35
0.0
146
0.0
 13
0.0
 23
0.0
 33
0.0
 16
1.0
 26
0.0
 36
0.0
 17
0.0
 27
1.0
 37
0.0
 76
     0
330
23
  0
LAYOUT
  5
22
102
{ACAD_REACTORS
330
1A
102
}
330
1A
100
AcDbPlotSettings
  1

  2
none_device
  4
Letter_(8.50_x_11.00_Inches)
  6

 40
6.35
 41
6.35
 42
6.35000508
 43
6.35000508
 44
215.9
 45
279.4
 46
0.0
 47
0.0
 48
0.0
 49
0.0
140
0.0
141
0.0
142
1.0
143
1.0
 70
  1712
 72
     1
 73
     0
 74
     0
  7

 75
     0
147
1.0
148
0.0
149
0.0
100
AcDbLayout
  1
Model
 70
     1
 71
     0
 10
0.0
 20
0.0
 11
594.0
 21
420.0
 12
0.0
 22
0.0
 32
0.0
 14
0.0
 24
0.0
 34
0.0
 15
594.0
 25
420.0
 35
0.0
146
0.0
 13
0.0
 23
0.0
 33
0.0
 16
1.0
 26
0.0
 36
0.0
 17
0.0
 27
1.0
 37
0.0
 76
     0
330
1F
331
29
  0
MLINESTYLE
  5
18
102
{ACAD_REACTORS
330
17
102
}
330
17
100
AcDbMlineStyle
  2
Standard
 70
     0
  3

 62
   256
 51
90.0
 52
90.0
 71
     2
 49
0.5
 62
   256
  6
BYLAYER
 49
-0.5
 62
   256
  6
BYLAYER
  0
ACDBPLACEHOLDER
  5
F
102
{ACAD_REACTORS
330
E
102
}
330
E
  0
SCALE
  5
48
102
{ACAD_REACTORS
330
47
102
}
330
47
100
AcDbScale
 70
     0
300
1:1
140
1.0
141
1.0
290
     1
  0
SCALE
  5
49
102
{ACAD_REACTORS
330
47
102
}
330
47
100
AcDbScale
 70
     0
300
1:2
140
1.0
141
2.0
290
     0
  0
SCALE
  5
4A
102
{ACAD_REACTORS
330
47
102
}
330
47
100
AcDbScale
 70
     0
300
1:4
140
1.0
141
4.0
290
     0
  0
SCALE
  5
4B
102
{ACAD_REACTORS
330
47
102
}
330
47
100
AcDbScale
 70
     0
300
1:5
140
1.0
141
5.0
290
     0
  0
SCALE
  5
4C
102
{ACAD_REACTORS
330
47
102
}
330
47
100
AcDbScale
 70
     0
300
1:8
140
1.0
141
8.0
290
     0
  0
SCALE
  5
4D
102
{ACAD_REACTORS
330
47
102
}
330
47
100
AcDbScale
 70
     0
300
1:10
140
1.0
141
10.0
290
     0
  0
SCALE
  5
4E
102
{ACAD_REACTORS
330
47
102
}
330
47
100
AcDbScale
 70
     0
300
1:16
140
1.0
141
16.0
290
     0
  0
SCALE
  5
4F
102
{ACAD_REACTORS
330
47
102
}
330
47
100
AcDbScale
 70
     0
300
1:20
140
1.0
141
20.0
290
     0
  0
SCALE
  5
50
102
{ACAD_REACTORS
330
47
102
}
330
47
100
AcDbScale
 70
     0
300
1:30
140
1.0
141
30.0
290
     0
  0
SCALE
  5
51
102
{ACAD_REACTORS
330
47
102
}
330
47
100
AcDbScale
 70
     0
300
1:40
140
1.0
141
40.0
290
     0
  0
SCALE
  5
52
102
{ACAD_REACTORS
330
47
102
}
330
47
100
AcDbScale
 70
     0
300
1:50
140
1.0
141
50.0
290
     0
  0
SCALE
  5
53
102
{ACAD_REACTORS
330
47
102
}
330
47
100
AcDbScale
 70
     0
300
1:100
140
1.0
141
100.0
290
     0
  0
SCALE
  5
54
102
{ACAD_REACTORS
330
47
102
}
330
47
100
AcDbScale
 70
     0
300
2:1
140
2.0
141
1.0
290
     0
  0
SCALE
  5
55
102
{ACAD_REACTORS
330
47
102
}
330
47
100
AcDbScale
 70
     0
300
4:1
140
4.0
141
1.0
290
     0
  0
SCALE
  5
56
102
{ACAD_REACTORS
330
47
102
}
330
47
100
AcDbScale
 70
     0
300
8:1
140
8.0
141
1.0
290
     0
  0
SCALE
  5
57
102
{ACAD_REACTORS
330
47
102
}
330
47
100
AcDbScale
 70
     0
300
10:1
140
10.0
141
1.0
290
     0
  0
SCALE
  5
58
102
{ACAD_REACTORS
330
47
102
}
330
47
100
AcDbScale
 70
     0
300
100:1
140
100.0
141
1.0
290
     0
  0
SCALE
  5
59
102
{ACAD_REACTORS
330
47
102
}
330
47
100
AcDbScale
 70
     0
300
1/128" = 1'-0"
140
0.0078125
141
12.0
290
     0
  0
SCALE
  5
5A
102
{ACAD_REACTORS
330
47
102
}
330
47
100
AcDbScale
 70
     0
300
1/64" = 1'-0"
140
0.015625
141
12.0
290
     0
  0
SCALE
  5
5B
102
{ACAD_REACTORS
330
47
102
}
330
47
100
AcDbScale
 70
     0
300
1/32" = 1'-0"
140
0.03125
141
12.0
290
     0
  0
SCALE
  5
5C
102
{ACAD_REACTORS
330
47
102
}
330
47
100
AcDbScale
 70
     0
300
1/16" = 1'-0"
140
0.0625
141
12.0
290
     0
  0
SCALE
  5
5D
102
{ACAD_REACTORS
330
47
102
}
330
47
100
AcDbScale
 70
     0
300
3/32" = 1'-0"
140
0.09375
141
12.0
290
     0
  0
SCALE
  5
5E
102
{ACAD_REACTORS
330
47
102
}
330
47
100
AcDbScale
 70
     0
300
1/8" = 1'-0"
140
0.125
141
12.0
290
     0
  0
SCALE
  5
5F
102
{ACAD_REACTORS
330
47
102
}
330
47
100
AcDbScale
 70
     0
300
3/16" = 1'-0"
140
0.1875
141
12.0
290
     0
  0
SCALE
  5
60
102
{ACAD_REACTORS
330
47
102
}
330
47
100
AcDbScale
 70
     0
300
1/4" = 1'-0"
140
0.25
141
12.0
290
     0
  0
SCALE
  5
61
102
{ACAD_REACTORS
330
47
102
}
330
47
100
AcDbScale
 70
     0
300
3/8" = 1'-0"
140
0.375
141
12.0
290
     0
  0
SCALE
  5
62
102
{ACAD_REACTORS
330
47
102
}
330
47
100
AcDbScale
 70
     0
300
1/2" = 1'-0"
140
0.5
141
12.0
290
     0
  0
SCALE
  5
63
102
{ACAD_REACTORS
330
47
102
}
330
47
100
AcDbScale
 70
     0
300
3/4" = 1'-0"
140
0.75
141
12.0
290
     0
  0
SCALE
  5
64
102
{ACAD_REACTORS
330
47
102
}
330
47
100
AcDbScale
 70
     0
300
1" = 1'-0"
140
1.0
141
12.0
290
     0
  0
SCALE
  5
65
102
{ACAD_REACTORS
330
47
102
}
330
47
100
AcDbScale
 70
     0
300
1-1/2" = 1'-0"
140
1.5
141
12.0
290
     0
  0
SCALE
  5
66
102
{ACAD_REACTORS
330
47
102
}
330
47
100
AcDbScale
 70
     0
300
3" = 1'-0"
140
3.0
141
12.0
290
     0
  0
SCALE
  5
67
102
{ACAD_REACTORS
330
47
102
}
330
47
100
AcDbScale
 70
     0
300
6" = 1'-0"
140
6.0
141
12.0
290
     0
  0
SCALE
  5
68
102
{ACAD_REACTORS
330
47
102
}
330
47
100
AcDbScale
 70
     0
300
1'-0" = 1'-0"
140
12.0
141
12.0
290
     0
  0
ENDSEC
  0
EOF
